<mxfile host="app.diagrams.net" modified="2022-01-07T09:43:32.012Z" agent="5.0 (Windows NT 10.0; Win64; x64) AppleWebKit/537.36 (KHTML, like Gecko) Chrome/96.0.4664.110 Safari/537.36" etag="LEdSh0df2OocFeNRjKOW" version="16.1.0" type="github">
  <diagram id="X_YsHXB3vTGY_uXjafgQ" name="第1頁">
    <mxGraphModel dx="6157" dy="3414" grid="1" gridSize="10" guides="1" tooltips="1" connect="1" arrows="1" fold="1" page="1" pageScale="1" pageWidth="827" pageHeight="1169" math="0" shadow="0">
      <root>
        <mxCell id="0" />
        <mxCell id="1" parent="0" />
        <mxCell id="9vmwIjMlL75sk7sSG7vk-1" value="" style="endArrow=none;startArrow=classic;html=1;strokeWidth=2;edgeStyle=elbowEdgeStyle;elbow=vertical;rounded=0;startFill=1;endFill=0;" parent="1" source="9vmwIjMlL75sk7sSG7vk-12" target="9vmwIjMlL75sk7sSG7vk-9" edge="1">
          <mxGeometry width="50" height="50" relative="1" as="geometry">
            <mxPoint x="-178" y="-1161.612707389364" as="sourcePoint" />
            <mxPoint x="-668" y="-1190" as="targetPoint" />
            <Array as="points">
              <mxPoint x="-840" y="-1460" />
              <mxPoint x="-770" y="-1425" />
              <mxPoint x="-648" y="-1740" />
              <mxPoint x="-568" y="-1620" />
              <mxPoint x="-678" y="-1780" />
            </Array>
          </mxGeometry>
        </mxCell>
        <mxCell id="9vmwIjMlL75sk7sSG7vk-2" value="" style="group;strokeWidth=2;" parent="1" vertex="1" connectable="0">
          <mxGeometry x="-440" y="-990" width="160" height="159.99999999999991" as="geometry" />
        </mxCell>
        <mxCell id="9vmwIjMlL75sk7sSG7vk-3" value="" style="group;strokeWidth=2;" parent="9vmwIjMlL75sk7sSG7vk-2" vertex="1" connectable="0">
          <mxGeometry x="5" width="160" height="113.59999999999991" as="geometry" />
        </mxCell>
        <mxCell id="9vmwIjMlL75sk7sSG7vk-4" value="" style="pointerEvents=1;shadow=0;dashed=0;html=1;strokeColor=none;fillColor=#434445;aspect=fixed;labelPosition=center;verticalLabelPosition=bottom;verticalAlign=top;align=center;outlineConnect=0;shape=mxgraph.vvd.web_browser;fontSize=20;strokeWidth=2;" parent="9vmwIjMlL75sk7sSG7vk-3" vertex="1">
          <mxGeometry width="160" height="113.6" as="geometry" />
        </mxCell>
        <mxCell id="9vmwIjMlL75sk7sSG7vk-5" value="" style="shape=image;html=1;verticalAlign=top;verticalLabelPosition=bottom;labelBackgroundColor=#ffffff;imageAspect=0;aspect=fixed;image=https://cdn1.iconfinder.com/data/icons/logotypes/32/chrome-128.png;fontSize=20;strokeWidth=2;" parent="9vmwIjMlL75sk7sSG7vk-3" vertex="1">
          <mxGeometry x="5" y="4" width="20" height="20" as="geometry" />
        </mxCell>
        <mxCell id="9vmwIjMlL75sk7sSG7vk-6" value="商店帳務&lt;br&gt;管理系統" style="text;html=1;strokeColor=none;fillColor=none;align=center;verticalAlign=middle;whiteSpace=wrap;rounded=0;fontSize=20;strokeWidth=2;" parent="9vmwIjMlL75sk7sSG7vk-2" vertex="1">
          <mxGeometry x="5" y="113.59999999999991" width="150" height="46.4" as="geometry" />
        </mxCell>
        <mxCell id="9vmwIjMlL75sk7sSG7vk-7" value="" style="group;strokeWidth=2;" parent="1" vertex="1" connectable="0">
          <mxGeometry x="-958" y="-1410" width="150" height="208.9999999999999" as="geometry" />
        </mxCell>
        <mxCell id="9vmwIjMlL75sk7sSG7vk-8" value="" style="group;strokeWidth=2;" parent="9vmwIjMlL75sk7sSG7vk-7" vertex="1" connectable="0">
          <mxGeometry x="3.75" width="135.75" height="162.39999999999998" as="geometry" />
        </mxCell>
        <mxCell id="9vmwIjMlL75sk7sSG7vk-9" value="" style="verticalLabelPosition=bottom;aspect=fixed;html=1;verticalAlign=top;strokeColor=none;align=center;outlineConnect=0;shape=mxgraph.citrix.web_server;fontSize=20;strokeWidth=2;" parent="9vmwIjMlL75sk7sSG7vk-8" vertex="1">
          <mxGeometry width="110.5" height="130" as="geometry" />
        </mxCell>
        <mxCell id="9vmwIjMlL75sk7sSG7vk-10" value="" style="verticalLabelPosition=bottom;aspect=fixed;html=1;verticalAlign=top;strokeColor=none;align=center;outlineConnect=0;shape=mxgraph.citrix.web_server;fontSize=20;strokeWidth=2;" parent="9vmwIjMlL75sk7sSG7vk-8" vertex="1">
          <mxGeometry x="25.25" y="32.39999999999998" width="110.5" height="130" as="geometry" />
        </mxCell>
        <mxCell id="9vmwIjMlL75sk7sSG7vk-11" value="APP Server" style="text;html=1;strokeColor=none;fillColor=none;align=center;verticalAlign=middle;whiteSpace=wrap;rounded=0;fontSize=20;strokeWidth=2;" parent="9vmwIjMlL75sk7sSG7vk-7" vertex="1">
          <mxGeometry y="162.5999999999999" width="150" height="46.4" as="geometry" />
        </mxCell>
        <mxCell id="9vmwIjMlL75sk7sSG7vk-12" value="" style="aspect=fixed;html=1;points=[];align=center;image;fontSize=12;image=img/lib/azure2/databases/SQL_Server.svg;strokeWidth=2;" parent="1" vertex="1">
          <mxGeometry x="-700" y="-1510" width="120" height="120" as="geometry" />
        </mxCell>
        <mxCell id="9vmwIjMlL75sk7sSG7vk-13" value="" style="endArrow=classic;html=1;strokeWidth=2;edgeStyle=orthogonalEdgeStyle;strokeColor=#FF0000;" parent="1" source="9vmwIjMlL75sk7sSG7vk-33" target="9vmwIjMlL75sk7sSG7vk-10" edge="1">
          <mxGeometry width="50" height="50" relative="1" as="geometry">
            <mxPoint x="-628" y="-1440" as="sourcePoint" />
            <mxPoint x="-578" y="-1490" as="targetPoint" />
            <Array as="points">
              <mxPoint x="-928" y="-1005" />
            </Array>
          </mxGeometry>
        </mxCell>
        <mxCell id="9vmwIjMlL75sk7sSG7vk-16" value="&#xa;&#xa;" style="group;strokeWidth=2;" parent="1" vertex="1" connectable="0">
          <mxGeometry x="-1408" y="-610" width="160" height="159.99999999999991" as="geometry" />
        </mxCell>
        <mxCell id="9vmwIjMlL75sk7sSG7vk-17" value="" style="group;strokeWidth=2;" parent="9vmwIjMlL75sk7sSG7vk-16" vertex="1" connectable="0">
          <mxGeometry width="160" height="113.59999999999991" as="geometry" />
        </mxCell>
        <mxCell id="9vmwIjMlL75sk7sSG7vk-18" value="" style="pointerEvents=1;shadow=0;dashed=0;html=1;strokeColor=none;fillColor=#434445;aspect=fixed;labelPosition=center;verticalLabelPosition=bottom;verticalAlign=top;align=center;outlineConnect=0;shape=mxgraph.vvd.web_browser;fontSize=20;strokeWidth=2;" parent="9vmwIjMlL75sk7sSG7vk-17" vertex="1">
          <mxGeometry width="160" height="113.6" as="geometry" />
        </mxCell>
        <mxCell id="9vmwIjMlL75sk7sSG7vk-19" value="" style="shape=image;html=1;verticalAlign=top;verticalLabelPosition=bottom;labelBackgroundColor=#ffffff;imageAspect=0;aspect=fixed;image=https://cdn1.iconfinder.com/data/icons/logotypes/32/chrome-128.png;fontSize=20;strokeWidth=2;" parent="9vmwIjMlL75sk7sSG7vk-17" vertex="1">
          <mxGeometry x="5" y="4" width="20" height="20" as="geometry" />
        </mxCell>
        <mxCell id="9vmwIjMlL75sk7sSG7vk-20" value="形象首頁" style="text;html=1;strokeColor=none;fillColor=none;align=center;verticalAlign=middle;whiteSpace=wrap;rounded=0;fontSize=20;strokeWidth=2;" parent="9vmwIjMlL75sk7sSG7vk-16" vertex="1">
          <mxGeometry x="5" y="113.59999999999991" width="150" height="46.4" as="geometry" />
        </mxCell>
        <mxCell id="9vmwIjMlL75sk7sSG7vk-21" value="" style="verticalLabelPosition=bottom;aspect=fixed;html=1;verticalAlign=top;strokeColor=none;align=center;outlineConnect=0;shape=mxgraph.citrix.web_server;fontSize=20;strokeWidth=2;" parent="1" vertex="1">
          <mxGeometry x="-1140" y="-618.1999999999999" width="110.5" height="130" as="geometry" />
        </mxCell>
        <mxCell id="9vmwIjMlL75sk7sSG7vk-22" value="" style="group;strokeWidth=2;" parent="1" vertex="1" connectable="0">
          <mxGeometry x="-1432" y="-1400" width="72" height="260" as="geometry" />
        </mxCell>
        <mxCell id="9vmwIjMlL75sk7sSG7vk-23" value="iPASS PAY&lt;br style=&quot;font-size: 20px&quot;&gt;(特店端)" style="aspect=fixed;pointerEvents=1;shadow=0;dashed=0;html=1;strokeColor=none;labelPosition=center;verticalLabelPosition=bottom;verticalAlign=top;align=center;fillColor=#00188D;shape=mxgraph.mscae.enterprise.android_phone;fontSize=20;strokeWidth=2;" parent="9vmwIjMlL75sk7sSG7vk-22" vertex="1">
          <mxGeometry y="-30" width="72" height="120" as="geometry" />
        </mxCell>
        <mxCell id="9vmwIjMlL75sk7sSG7vk-24" value="iPASS PAY&lt;br style=&quot;font-size: 20px;&quot;&gt;(使用者端)" style="aspect=fixed;pointerEvents=1;shadow=0;dashed=0;html=1;strokeColor=none;labelPosition=center;verticalLabelPosition=bottom;verticalAlign=top;align=center;fillColor=#00188D;shape=mxgraph.mscae.enterprise.android_phone;fontSize=20;strokeWidth=2;" parent="9vmwIjMlL75sk7sSG7vk-22" vertex="1">
          <mxGeometry y="160" width="72" height="120" as="geometry" />
        </mxCell>
        <mxCell id="9vmwIjMlL75sk7sSG7vk-25" style="edgeStyle=elbowEdgeStyle;rounded=0;orthogonalLoop=1;jettySize=auto;html=1;shadow=0;fontSize=20;startArrow=classic;startFill=1;startSize=6;strokeWidth=2;endArrow=none;endFill=0;" parent="1" source="9vmwIjMlL75sk7sSG7vk-26" target="9vmwIjMlL75sk7sSG7vk-72" edge="1">
          <mxGeometry relative="1" as="geometry">
            <Array as="points">
              <mxPoint x="-750" y="-1140" />
              <mxPoint x="-670" y="-1200" />
              <mxPoint x="-1138" y="-1095" />
            </Array>
          </mxGeometry>
        </mxCell>
        <mxCell id="9vmwIjMlL75sk7sSG7vk-26" value="&lt;font style=&quot;font-size: 20px&quot;&gt;HSM&lt;/font&gt;" style="outlineConnect=0;dashed=0;verticalLabelPosition=bottom;verticalAlign=top;align=center;html=1;shape=mxgraph.aws3.cloudhsm;fillColor=#759C3E;gradientColor=none;strokeWidth=2;" parent="1" vertex="1">
          <mxGeometry x="-820" y="-1033.2" width="110" height="140" as="geometry" />
        </mxCell>
        <mxCell id="9vmwIjMlL75sk7sSG7vk-27" value="" style="group;strokeWidth=2;" parent="1" vertex="1" connectable="0">
          <mxGeometry x="-1310" y="-1610" width="160" height="159.99999999999991" as="geometry" />
        </mxCell>
        <mxCell id="9vmwIjMlL75sk7sSG7vk-28" value="" style="group;strokeWidth=2;" parent="9vmwIjMlL75sk7sSG7vk-27" vertex="1" connectable="0">
          <mxGeometry width="160" height="113.59999999999991" as="geometry" />
        </mxCell>
        <mxCell id="9vmwIjMlL75sk7sSG7vk-29" value="" style="pointerEvents=1;shadow=0;dashed=0;html=1;strokeColor=none;fillColor=#434445;aspect=fixed;labelPosition=center;verticalLabelPosition=bottom;verticalAlign=top;align=center;outlineConnect=0;shape=mxgraph.vvd.web_browser;fontSize=20;strokeWidth=2;" parent="9vmwIjMlL75sk7sSG7vk-28" vertex="1">
          <mxGeometry width="160" height="113.6" as="geometry" />
        </mxCell>
        <mxCell id="9vmwIjMlL75sk7sSG7vk-30" value="" style="shape=image;html=1;verticalAlign=top;verticalLabelPosition=bottom;labelBackgroundColor=#ffffff;imageAspect=0;aspect=fixed;image=https://cdn1.iconfinder.com/data/icons/logotypes/32/chrome-128.png;fontSize=20;strokeWidth=2;" parent="9vmwIjMlL75sk7sSG7vk-28" vertex="1">
          <mxGeometry x="5" y="4" width="20" height="20" as="geometry" />
        </mxCell>
        <mxCell id="9vmwIjMlL75sk7sSG7vk-31" value="APP管理系統" style="text;html=1;strokeColor=none;fillColor=none;align=center;verticalAlign=middle;whiteSpace=wrap;rounded=0;fontSize=20;strokeWidth=2;" parent="9vmwIjMlL75sk7sSG7vk-27" vertex="1">
          <mxGeometry x="5" y="113.59999999999991" width="150" height="46.4" as="geometry" />
        </mxCell>
        <mxCell id="9vmwIjMlL75sk7sSG7vk-32" value="" style="endArrow=classic;startArrow=none;html=1;strokeWidth=2;endFill=1;startFill=0;" parent="1" source="9vmwIjMlL75sk7sSG7vk-18" target="9vmwIjMlL75sk7sSG7vk-21" edge="1">
          <mxGeometry width="50" height="50" relative="1" as="geometry">
            <mxPoint x="-1128" y="-1050" as="sourcePoint" />
            <mxPoint x="-1078" y="-1100" as="targetPoint" />
          </mxGeometry>
        </mxCell>
        <mxCell id="9vmwIjMlL75sk7sSG7vk-33" value="POS設備" style="points=[];aspect=fixed;html=1;align=center;shadow=0;dashed=0;image;image=img/lib/allied_telesis/security/POS.svg;fontSize=20;strokeWidth=2;" parent="1" vertex="1">
          <mxGeometry x="-1180.12" y="-1080" width="141.25" height="150" as="geometry" />
        </mxCell>
        <mxCell id="9vmwIjMlL75sk7sSG7vk-34" value="" style="endArrow=none;html=1;strokeWidth=2;entryX=0.99;entryY=0.99;entryDx=0;entryDy=0;entryPerimeter=0;edgeStyle=orthogonalEdgeStyle;endFill=0;" parent="1" source="9vmwIjMlL75sk7sSG7vk-33" target="9vmwIjMlL75sk7sSG7vk-24" edge="1">
          <mxGeometry width="50" height="50" relative="1" as="geometry">
            <mxPoint x="-728" y="-951" as="sourcePoint" />
            <mxPoint x="-678" y="-1001" as="targetPoint" />
            <Array as="points">
              <mxPoint x="-1396" y="-1005" />
              <mxPoint x="-1396" y="-1121" />
            </Array>
          </mxGeometry>
        </mxCell>
        <mxCell id="9vmwIjMlL75sk7sSG7vk-35" value="" style="endArrow=none;html=1;strokeWidth=2;exitX=0.5;exitY=1;exitDx=0;exitDy=0;exitPerimeter=0;endFill=0;" parent="1" source="9vmwIjMlL75sk7sSG7vk-24" target="9vmwIjMlL75sk7sSG7vk-37" edge="1">
          <mxGeometry width="50" height="50" relative="1" as="geometry">
            <mxPoint x="-748" y="-951" as="sourcePoint" />
            <mxPoint x="-698" y="-1001" as="targetPoint" />
          </mxGeometry>
        </mxCell>
        <mxCell id="9vmwIjMlL75sk7sSG7vk-36" value="" style="group" parent="1" vertex="1" connectable="0">
          <mxGeometry x="-1464" y="-890" width="160" height="113.6" as="geometry" />
        </mxCell>
        <mxCell id="9vmwIjMlL75sk7sSG7vk-37" value="線上QR" style="pointerEvents=1;shadow=0;dashed=0;html=1;aspect=fixed;labelPosition=center;verticalLabelPosition=bottom;verticalAlign=top;align=center;outlineConnect=0;shape=mxgraph.vvd.web_browser;fontSize=20;strokeWidth=2;" parent="9vmwIjMlL75sk7sSG7vk-36" vertex="1">
          <mxGeometry x="-12" width="160" height="113.6" as="geometry" />
        </mxCell>
        <mxCell id="9vmwIjMlL75sk7sSG7vk-38" value="" style="shape=image;html=1;verticalAlign=top;verticalLabelPosition=bottom;labelBackgroundColor=#ffffff;imageAspect=0;aspect=fixed;image=https://cdn1.iconfinder.com/data/icons/logotypes/32/chrome-128.png;fontSize=20;strokeWidth=2;" parent="9vmwIjMlL75sk7sSG7vk-36" vertex="1">
          <mxGeometry x="5" y="4" width="20" height="20" as="geometry" />
        </mxCell>
        <mxCell id="9vmwIjMlL75sk7sSG7vk-39" value="" style="shape=image;html=1;verticalAlign=top;verticalLabelPosition=bottom;labelBackgroundColor=#ffffff;imageAspect=0;aspect=fixed;image=https://cdn0.iconfinder.com/data/icons/view-1/20/qrcode-128.png;strokeWidth=4;" parent="9vmwIjMlL75sk7sSG7vk-36" vertex="1">
          <mxGeometry x="47" y="30" width="68" height="68" as="geometry" />
        </mxCell>
        <mxCell id="9vmwIjMlL75sk7sSG7vk-40" value="" style="group" parent="1" vertex="1" connectable="0">
          <mxGeometry x="-1700" y="-1033.2" width="150" height="166.39999999999992" as="geometry" />
        </mxCell>
        <mxCell id="9vmwIjMlL75sk7sSG7vk-41" value="" style="group" parent="9vmwIjMlL75sk7sSG7vk-40" vertex="1" connectable="0">
          <mxGeometry x="12" width="126" height="126" as="geometry" />
        </mxCell>
        <mxCell id="9vmwIjMlL75sk7sSG7vk-42" value="&#xa;&#xa;&#xa;&#xa;ipass&#xa;pay&#xa;" style="swimlane;startSize=0;strokeWidth=4;" parent="9vmwIjMlL75sk7sSG7vk-41" vertex="1">
          <mxGeometry x="20" width="90" height="126" as="geometry">
            <mxRectangle x="20" width="50" height="40" as="alternateBounds" />
          </mxGeometry>
        </mxCell>
        <mxCell id="9vmwIjMlL75sk7sSG7vk-43" value="" style="shape=image;html=1;verticalAlign=top;verticalLabelPosition=bottom;labelBackgroundColor=#ffffff;imageAspect=0;aspect=fixed;image=https://cdn0.iconfinder.com/data/icons/view-1/20/qrcode-128.png;strokeWidth=4;" parent="9vmwIjMlL75sk7sSG7vk-42" vertex="1">
          <mxGeometry x="11" y="40" width="68" height="68" as="geometry" />
        </mxCell>
        <mxCell id="9vmwIjMlL75sk7sSG7vk-44" value="商城QR" style="text;html=1;strokeColor=none;fillColor=none;align=center;verticalAlign=middle;whiteSpace=wrap;rounded=0;fontSize=20;strokeWidth=2;" parent="9vmwIjMlL75sk7sSG7vk-40" vertex="1">
          <mxGeometry y="119.99999999999991" width="150" height="46.4" as="geometry" />
        </mxCell>
        <mxCell id="9vmwIjMlL75sk7sSG7vk-46" style="edgeStyle=elbowEdgeStyle;rounded=0;orthogonalLoop=1;jettySize=auto;html=1;startArrow=none;startFill=0;endArrow=classic;endFill=1;startSize=0;strokeWidth=2;entryX=0;entryY=0.5;entryDx=0;entryDy=0;entryPerimeter=0;fontColor=#FF3333;labelBackgroundColor=#FF3333;strokeColor=#FF3333;" parent="1" target="9vmwIjMlL75sk7sSG7vk-23" edge="1" source="HavgDcFnVHiz-q8iYQLe-7">
          <mxGeometry relative="1" as="geometry">
            <mxPoint x="-1478" y="-2000" as="sourcePoint" />
            <mxPoint x="-2090" y="-1705" as="targetPoint" />
            <Array as="points">
              <mxPoint x="-1552" y="-1720" />
            </Array>
          </mxGeometry>
        </mxCell>
        <mxCell id="9vmwIjMlL75sk7sSG7vk-55" style="edgeStyle=elbowEdgeStyle;rounded=0;orthogonalLoop=1;jettySize=auto;html=1;startArrow=none;startFill=0;endArrow=classic;endFill=1;startSize=0;strokeWidth=2;strokeColor=#6600CC;" parent="1" source="9vmwIjMlL75sk7sSG7vk-29" target="9vmwIjMlL75sk7sSG7vk-9" edge="1">
          <mxGeometry relative="1" as="geometry">
            <Array as="points">
              <mxPoint x="-948" y="-1480" />
            </Array>
          </mxGeometry>
        </mxCell>
        <mxCell id="9vmwIjMlL75sk7sSG7vk-56" style="edgeStyle=elbowEdgeStyle;rounded=0;orthogonalLoop=1;jettySize=auto;html=1;startArrow=classic;startFill=1;endArrow=classic;endFill=1;startSize=0;strokeWidth=2;strokeColor=#FF0000;" parent="1" source="9vmwIjMlL75sk7sSG7vk-23" target="9vmwIjMlL75sk7sSG7vk-9" edge="1">
          <mxGeometry relative="1" as="geometry" />
        </mxCell>
        <mxCell id="9vmwIjMlL75sk7sSG7vk-57" style="edgeStyle=elbowEdgeStyle;rounded=0;orthogonalLoop=1;jettySize=auto;html=1;startArrow=classic;startFill=1;endArrow=classic;endFill=1;startSize=0;strokeWidth=2;strokeColor=#FF0000;" parent="1" source="9vmwIjMlL75sk7sSG7vk-24" target="9vmwIjMlL75sk7sSG7vk-9" edge="1">
          <mxGeometry relative="1" as="geometry">
            <Array as="points">
              <mxPoint x="-1088" y="-1290" />
              <mxPoint x="-1098" y="-1290" />
            </Array>
          </mxGeometry>
        </mxCell>
        <mxCell id="9vmwIjMlL75sk7sSG7vk-58" style="edgeStyle=orthogonalEdgeStyle;rounded=0;orthogonalLoop=1;jettySize=auto;html=1;entryX=0.01;entryY=0.99;entryDx=0;entryDy=0;entryPerimeter=0;startArrow=none;startFill=0;endArrow=none;endFill=0;startSize=6;strokeWidth=2;exitX=1.016;exitY=0.375;exitDx=0;exitDy=0;exitPerimeter=0;" parent="1" source="9vmwIjMlL75sk7sSG7vk-42" target="9vmwIjMlL75sk7sSG7vk-24" edge="1">
          <mxGeometry relative="1" as="geometry">
            <Array as="points">
              <mxPoint x="-1396" y="-986" />
              <mxPoint x="-1396" y="-1121" />
            </Array>
          </mxGeometry>
        </mxCell>
        <mxCell id="9vmwIjMlL75sk7sSG7vk-59" style="edgeStyle=elbowEdgeStyle;rounded=0;orthogonalLoop=1;jettySize=auto;html=1;shadow=0;fontSize=20;startArrow=classic;startFill=1;startSize=6;strokeWidth=2;endArrow=none;endFill=0;" parent="1" source="9vmwIjMlL75sk7sSG7vk-60" target="9vmwIjMlL75sk7sSG7vk-72" edge="1">
          <mxGeometry relative="1" as="geometry" />
        </mxCell>
        <mxCell id="9vmwIjMlL75sk7sSG7vk-60" value="UB信用卡支付" style="swimlane;rounded=0;shadow=0;glass=0;sketch=0;startSize=50;strokeColor=#9673a6;strokeWidth=4;fillColor=#FFC7DA;gradientDirection=south;perimeterSpacing=1;swimlaneFillColor=#DEF7FF;fontSize=22;fontStyle=1;gradientColor=#FFFFFF;" parent="1" vertex="1">
          <mxGeometry x="-70" y="-1538.6" width="530" height="516" as="geometry">
            <mxRectangle x="580" y="-980" width="130" height="20" as="alternateBounds" />
          </mxGeometry>
        </mxCell>
        <mxCell id="9vmwIjMlL75sk7sSG7vk-61" style="edgeStyle=orthogonalEdgeStyle;rounded=0;orthogonalLoop=1;jettySize=auto;html=1;fontSize=22;startArrow=classic;startFill=1;endArrow=classic;endFill=1;strokeWidth=2;" parent="9vmwIjMlL75sk7sSG7vk-60" source="9vmwIjMlL75sk7sSG7vk-62" target="9vmwIjMlL75sk7sSG7vk-68" edge="1">
          <mxGeometry relative="1" as="geometry" />
        </mxCell>
        <mxCell id="9vmwIjMlL75sk7sSG7vk-62" value="&lt;font style=&quot;font-size: 20px&quot;&gt;Coses&lt;/font&gt;" style="aspect=fixed;html=1;points=[];align=center;image;fontSize=12;image=img/lib/azure2/app_services/App_Services.svg;strokeWidth=2;" parent="9vmwIjMlL75sk7sSG7vk-60" vertex="1">
          <mxGeometry x="217.3700000000001" y="330" width="100" height="100" as="geometry" />
        </mxCell>
        <mxCell id="9vmwIjMlL75sk7sSG7vk-63" style="edgeStyle=elbowEdgeStyle;rounded=0;orthogonalLoop=1;jettySize=auto;elbow=vertical;html=1;fontSize=22;startArrow=classic;startFill=1;endArrow=classic;endFill=1;strokeWidth=2;" parent="9vmwIjMlL75sk7sSG7vk-60" source="9vmwIjMlL75sk7sSG7vk-64" target="9vmwIjMlL75sk7sSG7vk-68" edge="1">
          <mxGeometry relative="1" as="geometry" />
        </mxCell>
        <mxCell id="9vmwIjMlL75sk7sSG7vk-64" value="&lt;font style=&quot;font-size: 20px&quot;&gt;3DS&lt;br&gt;&lt;/font&gt;" style="aspect=fixed;html=1;points=[];align=center;image;fontSize=12;image=img/lib/azure2/app_services/App_Services.svg;strokeWidth=2;" parent="9vmwIjMlL75sk7sSG7vk-60" vertex="1">
          <mxGeometry x="70" y="330" width="100" height="100" as="geometry" />
        </mxCell>
        <mxCell id="9vmwIjMlL75sk7sSG7vk-65" style="edgeStyle=elbowEdgeStyle;rounded=0;orthogonalLoop=1;jettySize=auto;html=1;fontSize=22;startArrow=classic;startFill=1;endArrow=classic;endFill=1;strokeWidth=2;elbow=vertical;" parent="9vmwIjMlL75sk7sSG7vk-60" source="9vmwIjMlL75sk7sSG7vk-66" target="9vmwIjMlL75sk7sSG7vk-68" edge="1">
          <mxGeometry relative="1" as="geometry" />
        </mxCell>
        <mxCell id="9vmwIjMlL75sk7sSG7vk-66" value="&lt;font style=&quot;font-size: 20px&quot;&gt;M/F&lt;br&gt;&lt;/font&gt;" style="aspect=fixed;html=1;points=[];align=center;image;fontSize=12;image=img/lib/azure2/app_services/App_Services.svg;strokeWidth=2;" parent="9vmwIjMlL75sk7sSG7vk-60" vertex="1">
          <mxGeometry x="360.00000000000017" y="330" width="100" height="100" as="geometry" />
        </mxCell>
        <mxCell id="9vmwIjMlL75sk7sSG7vk-67" value="" style="verticalLabelPosition=bottom;aspect=fixed;html=1;verticalAlign=top;strokeColor=none;align=center;outlineConnect=0;shape=mxgraph.citrix.web_server;fontSize=20;strokeWidth=2;" parent="9vmwIjMlL75sk7sSG7vk-60" vertex="1">
          <mxGeometry x="187.3700000000001" y="60" width="110.5" height="130" as="geometry" />
        </mxCell>
        <mxCell id="9vmwIjMlL75sk7sSG7vk-68" value="PaymentService" style="verticalLabelPosition=bottom;aspect=fixed;html=1;verticalAlign=top;strokeColor=none;align=center;outlineConnect=0;shape=mxgraph.citrix.web_server;fontSize=20;strokeWidth=2;" parent="9vmwIjMlL75sk7sSG7vk-60" vertex="1">
          <mxGeometry x="212.1200000000001" y="90" width="110.5" height="130" as="geometry" />
        </mxCell>
        <mxCell id="9vmwIjMlL75sk7sSG7vk-69" value="" style="group;strokeWidth=2;" parent="1" vertex="1" connectable="0">
          <mxGeometry x="-553" y="-1378" width="150" height="208.9999999999999" as="geometry" />
        </mxCell>
        <mxCell id="9vmwIjMlL75sk7sSG7vk-70" value="" style="group;strokeWidth=2;" parent="9vmwIjMlL75sk7sSG7vk-69" vertex="1" connectable="0">
          <mxGeometry x="3.75" width="135.75" height="162.39999999999998" as="geometry" />
        </mxCell>
        <mxCell id="9vmwIjMlL75sk7sSG7vk-71" value="" style="verticalLabelPosition=bottom;aspect=fixed;html=1;verticalAlign=top;strokeColor=none;align=center;outlineConnect=0;shape=mxgraph.citrix.web_server;fontSize=20;strokeWidth=2;" parent="9vmwIjMlL75sk7sSG7vk-70" vertex="1">
          <mxGeometry width="110.5" height="130" as="geometry" />
        </mxCell>
        <mxCell id="9vmwIjMlL75sk7sSG7vk-72" value="" style="verticalLabelPosition=bottom;aspect=fixed;html=1;verticalAlign=top;strokeColor=none;align=center;outlineConnect=0;shape=mxgraph.citrix.web_server;fontSize=20;strokeWidth=2;" parent="9vmwIjMlL75sk7sSG7vk-70" vertex="1">
          <mxGeometry x="25.25" y="32.39999999999998" width="110.5" height="130" as="geometry" />
        </mxCell>
        <mxCell id="9vmwIjMlL75sk7sSG7vk-73" value="支付中心" style="text;html=1;strokeColor=none;fillColor=none;align=center;verticalAlign=middle;whiteSpace=wrap;rounded=0;fontSize=20;strokeWidth=2;" parent="9vmwIjMlL75sk7sSG7vk-69" vertex="1">
          <mxGeometry y="162.5999999999999" width="150" height="46.4" as="geometry" />
        </mxCell>
        <mxCell id="9vmwIjMlL75sk7sSG7vk-74" value="" style="endArrow=classic;startArrow=none;html=1;shadow=0;fontSize=20;startSize=6;strokeWidth=6;startFill=0;strokeColor=#6600CC;" parent="1" source="9vmwIjMlL75sk7sSG7vk-10" target="9vmwIjMlL75sk7sSG7vk-71" edge="1">
          <mxGeometry width="50" height="50" relative="1" as="geometry">
            <mxPoint x="420" y="-1165" as="sourcePoint" />
            <mxPoint x="470" y="-1215" as="targetPoint" />
          </mxGeometry>
        </mxCell>
        <mxCell id="9vmwIjMlL75sk7sSG7vk-75" style="edgeStyle=elbowEdgeStyle;rounded=0;orthogonalLoop=1;jettySize=auto;html=1;shadow=0;fontSize=20;startArrow=none;startFill=0;startSize=6;strokeWidth=2;strokeColor=#000000;" parent="1" source="9vmwIjMlL75sk7sSG7vk-4" target="9vmwIjMlL75sk7sSG7vk-72" edge="1">
          <mxGeometry relative="1" as="geometry">
            <Array as="points">
              <mxPoint x="-470" y="-1090" />
              <mxPoint x="-500" y="-1100" />
              <mxPoint x="-370" y="-1070" />
            </Array>
          </mxGeometry>
        </mxCell>
        <mxCell id="9vmwIjMlL75sk7sSG7vk-84" style="edgeStyle=elbowEdgeStyle;rounded=0;orthogonalLoop=1;jettySize=auto;html=1;startArrow=none;startFill=0;endArrow=classic;endFill=1;startSize=0;strokeWidth=2;entryX=0;entryY=0.5;entryDx=0;entryDy=0;entryPerimeter=0;fontColor=#FF3333;strokeColor=#FF3333;" parent="1" source="HavgDcFnVHiz-q8iYQLe-7" target="9vmwIjMlL75sk7sSG7vk-24" edge="1">
          <mxGeometry relative="1" as="geometry">
            <mxPoint x="-1480" y="-1860" as="sourcePoint" />
            <mxPoint x="-1456" y="-1486.25" as="targetPoint" />
            <Array as="points">
              <mxPoint x="-1550" y="-1520" />
              <mxPoint x="-1460" y="-1870" />
              <mxPoint x="-1550" y="-1725" />
            </Array>
          </mxGeometry>
        </mxCell>
        <mxCell id="9vmwIjMlL75sk7sSG7vk-85" value="BNPL" style="swimlane;rounded=0;shadow=0;glass=0;sketch=0;startSize=50;strokeColor=#9673a6;strokeWidth=4;fillColor=#FFC7DA;gradientDirection=south;perimeterSpacing=1;swimlaneFillColor=#DEF7FF;fontSize=22;fontStyle=1;gradientColor=#FFFFFF;" parent="1" vertex="1">
          <mxGeometry x="10" y="-910" width="253" height="350" as="geometry">
            <mxRectangle x="580" y="-980" width="130" height="20" as="alternateBounds" />
          </mxGeometry>
        </mxCell>
        <mxCell id="9vmwIjMlL75sk7sSG7vk-86" value="" style="verticalLabelPosition=bottom;aspect=fixed;html=1;verticalAlign=top;strokeColor=none;align=center;outlineConnect=0;shape=mxgraph.citrix.web_server;fontSize=20;strokeWidth=2;" parent="9vmwIjMlL75sk7sSG7vk-85" vertex="1">
          <mxGeometry x="58.87000000000008" y="95" width="110.5" height="130" as="geometry" />
        </mxCell>
        <mxCell id="9vmwIjMlL75sk7sSG7vk-87" value="BNPL" style="verticalLabelPosition=bottom;aspect=fixed;html=1;verticalAlign=top;strokeColor=none;align=center;outlineConnect=0;shape=mxgraph.citrix.web_server;fontSize=20;strokeWidth=2;" parent="9vmwIjMlL75sk7sSG7vk-85" vertex="1">
          <mxGeometry x="83.62000000000009" y="125" width="110.5" height="130" as="geometry" />
        </mxCell>
        <mxCell id="9vmwIjMlL75sk7sSG7vk-88" style="edgeStyle=elbowEdgeStyle;rounded=0;orthogonalLoop=1;jettySize=auto;html=1;shadow=0;fontSize=20;startArrow=classic;startFill=1;startSize=6;strokeWidth=2;endArrow=none;endFill=0;" parent="1" source="9vmwIjMlL75sk7sSG7vk-85" target="9vmwIjMlL75sk7sSG7vk-72" edge="1">
          <mxGeometry relative="1" as="geometry">
            <mxPoint x="-164" y="-1118" as="sourcePoint" />
            <mxPoint x="-403.5" y="-1289.6" as="targetPoint" />
          </mxGeometry>
        </mxCell>
        <mxCell id="9vmwIjMlL75sk7sSG7vk-89" value="" style="endArrow=none;startArrow=classic;html=1;strokeWidth=2;edgeStyle=elbowEdgeStyle;elbow=vertical;rounded=0;startFill=1;endFill=0;" parent="1" source="9vmwIjMlL75sk7sSG7vk-90" target="9vmwIjMlL75sk7sSG7vk-72" edge="1">
          <mxGeometry width="50" height="50" relative="1" as="geometry">
            <mxPoint x="-90" y="-789.612707389364" as="sourcePoint" />
            <mxPoint x="-484" y="-1188" as="targetPoint" />
            <Array as="points">
              <mxPoint x="-500" y="-1160" />
              <mxPoint x="-360" y="-1156" />
              <mxPoint x="-560" y="-1368" />
              <mxPoint x="-480" y="-1248" />
              <mxPoint x="-590" y="-1408" />
            </Array>
          </mxGeometry>
        </mxCell>
        <mxCell id="9vmwIjMlL75sk7sSG7vk-90" value="" style="aspect=fixed;html=1;points=[];align=center;image;fontSize=12;image=img/lib/azure2/databases/SQL_Server.svg;strokeWidth=2;" parent="1" vertex="1">
          <mxGeometry x="-650" y="-1065" width="120" height="120" as="geometry" />
        </mxCell>
        <mxCell id="HavgDcFnVHiz-q8iYQLe-9" value="" style="group" vertex="1" connectable="0" parent="1">
          <mxGeometry x="-1360" y="-1880" width="238.10000000000002" height="150" as="geometry" />
        </mxCell>
        <mxCell id="HavgDcFnVHiz-q8iYQLe-7" value="" style="aspect=fixed;perimeter=ellipsePerimeter;html=1;align=center;shadow=0;dashed=0;spacingTop=3;image;image=img/lib/active_directory/internet_cloud.svg;fontFamily=Helvetica;fontSize=11;fontColor=default;" vertex="1" parent="HavgDcFnVHiz-q8iYQLe-9">
          <mxGeometry width="238.1" height="150" as="geometry" />
        </mxCell>
        <mxCell id="HavgDcFnVHiz-q8iYQLe-8" value="推播/CDN" style="text;html=1;align=center;verticalAlign=middle;resizable=0;points=[];autosize=1;strokeColor=none;fillColor=none;fontSize=43;fontFamily=Helvetica;fontColor=#000000;" vertex="1" parent="HavgDcFnVHiz-q8iYQLe-9">
          <mxGeometry x="14.050000000000068" y="45" width="210" height="60" as="geometry" />
        </mxCell>
        <mxCell id="HavgDcFnVHiz-q8iYQLe-10" value="" style="group;strokeWidth=2;" vertex="1" connectable="0" parent="1">
          <mxGeometry x="-760" y="-1990" width="150" height="208.9999999999999" as="geometry" />
        </mxCell>
        <mxCell id="HavgDcFnVHiz-q8iYQLe-11" value="" style="group;strokeWidth=2;" vertex="1" connectable="0" parent="HavgDcFnVHiz-q8iYQLe-10">
          <mxGeometry x="3.75" width="135.75" height="162.39999999999998" as="geometry" />
        </mxCell>
        <mxCell id="HavgDcFnVHiz-q8iYQLe-12" value="" style="verticalLabelPosition=bottom;aspect=fixed;html=1;verticalAlign=top;strokeColor=none;align=center;outlineConnect=0;shape=mxgraph.citrix.web_server;fontSize=20;strokeWidth=2;" vertex="1" parent="HavgDcFnVHiz-q8iYQLe-11">
          <mxGeometry width="110.5" height="130" as="geometry" />
        </mxCell>
        <mxCell id="HavgDcFnVHiz-q8iYQLe-13" value="" style="verticalLabelPosition=bottom;aspect=fixed;html=1;verticalAlign=top;strokeColor=none;align=center;outlineConnect=0;shape=mxgraph.citrix.web_server;fontSize=20;strokeWidth=2;" vertex="1" parent="HavgDcFnVHiz-q8iYQLe-11">
          <mxGeometry x="25.25" y="32.39999999999998" width="110.5" height="130" as="geometry" />
        </mxCell>
        <mxCell id="HavgDcFnVHiz-q8iYQLe-14" value="簡訊/信箱" style="text;html=1;strokeColor=none;fillColor=none;align=center;verticalAlign=middle;whiteSpace=wrap;rounded=0;fontSize=20;strokeWidth=2;" vertex="1" parent="HavgDcFnVHiz-q8iYQLe-10">
          <mxGeometry y="162.5999999999999" width="150" height="46.4" as="geometry" />
        </mxCell>
        <mxCell id="HavgDcFnVHiz-q8iYQLe-15" style="edgeStyle=orthogonalEdgeStyle;shape=connector;rounded=0;orthogonalLoop=1;jettySize=auto;html=1;labelBackgroundColor=default;fontFamily=Helvetica;fontSize=43;fontColor=#000000;startArrow=none;startFill=0;endArrow=classic;endFill=1;strokeColor=default;strokeWidth=2;" edge="1" parent="1" source="9vmwIjMlL75sk7sSG7vk-9" target="HavgDcFnVHiz-q8iYQLe-12">
          <mxGeometry relative="1" as="geometry">
            <Array as="points">
              <mxPoint x="-899" y="-1910" />
            </Array>
          </mxGeometry>
        </mxCell>
        <mxCell id="HavgDcFnVHiz-q8iYQLe-16" style="edgeStyle=orthogonalEdgeStyle;shape=connector;rounded=0;orthogonalLoop=1;jettySize=auto;html=1;labelBackgroundColor=default;fontFamily=Helvetica;fontSize=43;fontColor=#000000;startArrow=none;startFill=0;endArrow=classic;endFill=1;strokeColor=default;strokeWidth=2;" edge="1" parent="1" source="9vmwIjMlL75sk7sSG7vk-71" target="HavgDcFnVHiz-q8iYQLe-13">
          <mxGeometry relative="1" as="geometry">
            <Array as="points">
              <mxPoint x="-494" y="-1910" />
            </Array>
          </mxGeometry>
        </mxCell>
        <mxCell id="HavgDcFnVHiz-q8iYQLe-17" style="edgeStyle=orthogonalEdgeStyle;shape=connector;rounded=0;orthogonalLoop=1;jettySize=auto;html=1;labelBackgroundColor=default;fontFamily=Helvetica;fontSize=43;fontColor=#000000;startArrow=none;startFill=0;endArrow=classic;endFill=1;strokeColor=#FF3333;strokeWidth=2;" edge="1" parent="1" source="9vmwIjMlL75sk7sSG7vk-9" target="HavgDcFnVHiz-q8iYQLe-7">
          <mxGeometry relative="1" as="geometry">
            <Array as="points">
              <mxPoint x="-899" y="-1800" />
            </Array>
          </mxGeometry>
        </mxCell>
        <mxCell id="HavgDcFnVHiz-q8iYQLe-20" value="" style="group;strokeWidth=2;" vertex="1" connectable="0" parent="1">
          <mxGeometry x="-730" y="-1753" width="150" height="208.9999999999999" as="geometry" />
        </mxCell>
        <mxCell id="HavgDcFnVHiz-q8iYQLe-21" value="" style="group;strokeWidth=2;" vertex="1" connectable="0" parent="HavgDcFnVHiz-q8iYQLe-20">
          <mxGeometry x="3.75" width="135.75" height="162.39999999999998" as="geometry" />
        </mxCell>
        <mxCell id="HavgDcFnVHiz-q8iYQLe-22" value="" style="verticalLabelPosition=bottom;aspect=fixed;html=1;verticalAlign=top;strokeColor=none;align=center;outlineConnect=0;shape=mxgraph.citrix.web_server;fontSize=20;strokeWidth=2;" vertex="1" parent="HavgDcFnVHiz-q8iYQLe-21">
          <mxGeometry width="110.5" height="130" as="geometry" />
        </mxCell>
        <mxCell id="HavgDcFnVHiz-q8iYQLe-23" value="" style="verticalLabelPosition=bottom;aspect=fixed;html=1;verticalAlign=top;strokeColor=none;align=center;outlineConnect=0;shape=mxgraph.citrix.web_server;fontSize=20;strokeWidth=2;" vertex="1" parent="HavgDcFnVHiz-q8iYQLe-21">
          <mxGeometry x="25.25" y="32.39999999999998" width="110.5" height="130" as="geometry" />
        </mxCell>
        <mxCell id="HavgDcFnVHiz-q8iYQLe-24" value="點數系統" style="text;html=1;strokeColor=none;fillColor=none;align=center;verticalAlign=middle;whiteSpace=wrap;rounded=0;fontSize=20;strokeWidth=2;" vertex="1" parent="HavgDcFnVHiz-q8iYQLe-20">
          <mxGeometry y="162.5999999999999" width="150" height="46.4" as="geometry" />
        </mxCell>
        <mxCell id="HavgDcFnVHiz-q8iYQLe-25" style="edgeStyle=orthogonalEdgeStyle;shape=connector;rounded=0;orthogonalLoop=1;jettySize=auto;html=1;labelBackgroundColor=#FF3333;fontFamily=Helvetica;fontSize=43;fontColor=#FF3333;startArrow=none;startFill=0;endArrow=classic;endFill=1;strokeColor=#000000;strokeWidth=2;" edge="1" parent="1" source="9vmwIjMlL75sk7sSG7vk-9" target="HavgDcFnVHiz-q8iYQLe-22">
          <mxGeometry relative="1" as="geometry">
            <Array as="points">
              <mxPoint x="-899" y="-1675" />
            </Array>
          </mxGeometry>
        </mxCell>
        <mxCell id="HavgDcFnVHiz-q8iYQLe-32" value="" style="group" vertex="1" connectable="0" parent="1">
          <mxGeometry x="-360" y="-1680" width="238.10000000000002" height="150" as="geometry" />
        </mxCell>
        <mxCell id="HavgDcFnVHiz-q8iYQLe-33" value="" style="aspect=fixed;perimeter=ellipsePerimeter;html=1;align=center;shadow=0;dashed=0;spacingTop=3;image;image=img/lib/active_directory/internet_cloud.svg;fontFamily=Helvetica;fontSize=11;fontColor=default;" vertex="1" parent="HavgDcFnVHiz-q8iYQLe-32">
          <mxGeometry width="238.1" height="150" as="geometry" />
        </mxCell>
        <mxCell id="HavgDcFnVHiz-q8iYQLe-34" value="TWCA" style="text;html=1;align=center;verticalAlign=middle;resizable=0;points=[];autosize=1;strokeColor=none;fillColor=none;fontSize=43;fontFamily=Helvetica;fontColor=#000000;" vertex="1" parent="HavgDcFnVHiz-q8iYQLe-32">
          <mxGeometry x="49.05000000000007" y="45" width="140" height="60" as="geometry" />
        </mxCell>
        <mxCell id="HavgDcFnVHiz-q8iYQLe-35" style="edgeStyle=orthogonalEdgeStyle;shape=connector;rounded=0;orthogonalLoop=1;jettySize=auto;html=1;labelBackgroundColor=#FF3333;fontFamily=Helvetica;fontSize=43;fontColor=#FF3333;startArrow=none;startFill=0;endArrow=classic;endFill=1;strokeColor=#FF3333;strokeWidth=2;" edge="1" parent="1" source="9vmwIjMlL75sk7sSG7vk-71" target="HavgDcFnVHiz-q8iYQLe-33">
          <mxGeometry relative="1" as="geometry">
            <Array as="points">
              <mxPoint x="-494" y="-1605" />
            </Array>
          </mxGeometry>
        </mxCell>
        <mxCell id="HavgDcFnVHiz-q8iYQLe-36" style="shape=connector;rounded=0;orthogonalLoop=1;jettySize=auto;html=1;labelBackgroundColor=#FF3333;fontFamily=Helvetica;fontSize=43;fontColor=#FF3333;startArrow=none;startFill=0;endArrow=classic;endFill=1;strokeColor=#000000;strokeWidth=2;" edge="1" parent="1" source="HavgDcFnVHiz-q8iYQLe-23">
          <mxGeometry relative="1" as="geometry">
            <mxPoint x="-646" y="-1500" as="targetPoint" />
          </mxGeometry>
        </mxCell>
        <mxCell id="HavgDcFnVHiz-q8iYQLe-37" value="" style="group" vertex="1" connectable="0" parent="1">
          <mxGeometry x="-1360" y="-2080" width="238.10000000000002" height="150" as="geometry" />
        </mxCell>
        <mxCell id="HavgDcFnVHiz-q8iYQLe-38" value="" style="aspect=fixed;perimeter=ellipsePerimeter;html=1;align=center;shadow=0;dashed=0;spacingTop=3;image;image=img/lib/active_directory/internet_cloud.svg;fontFamily=Helvetica;fontSize=11;fontColor=default;" vertex="1" parent="HavgDcFnVHiz-q8iYQLe-37">
          <mxGeometry width="238.1" height="150" as="geometry" />
        </mxCell>
        <mxCell id="HavgDcFnVHiz-q8iYQLe-39" value="外部服務" style="text;html=1;align=center;verticalAlign=middle;resizable=0;points=[];autosize=1;strokeColor=none;fillColor=none;fontSize=43;fontFamily=Helvetica;fontColor=#000000;" vertex="1" parent="HavgDcFnVHiz-q8iYQLe-37">
          <mxGeometry x="24.050000000000068" y="45" width="190" height="60" as="geometry" />
        </mxCell>
        <mxCell id="HavgDcFnVHiz-q8iYQLe-40" style="edgeStyle=orthogonalEdgeStyle;shape=connector;rounded=0;orthogonalLoop=1;jettySize=auto;html=1;labelBackgroundColor=default;fontFamily=Helvetica;fontSize=43;fontColor=#000000;startArrow=none;startFill=0;endArrow=classic;endFill=1;strokeColor=#FF3333;strokeWidth=2;" edge="1" parent="1" source="9vmwIjMlL75sk7sSG7vk-9" target="HavgDcFnVHiz-q8iYQLe-38">
          <mxGeometry relative="1" as="geometry">
            <mxPoint x="-889" y="-1400" as="sourcePoint" />
            <mxPoint x="-1310" y="-2280" as="targetPoint" />
            <Array as="points">
              <mxPoint x="-900" y="-2005" />
            </Array>
          </mxGeometry>
        </mxCell>
        <mxCell id="HavgDcFnVHiz-q8iYQLe-196" style="edgeStyle=none;rounded=0;orthogonalLoop=1;jettySize=auto;html=1;labelBackgroundColor=#FF3333;fontFamily=Helvetica;fontSize=28;fontColor=#0808FF;startArrow=none;startFill=1;endArrow=classic;endFill=1;strokeColor=#009900;strokeWidth=3;fillColor=#CC0066;entryX=0;entryY=0.5;entryDx=0;entryDy=0;" edge="1" parent="1" source="HavgDcFnVHiz-q8iYQLe-234" target="HavgDcFnVHiz-q8iYQLe-159">
          <mxGeometry relative="1" as="geometry" />
        </mxCell>
        <mxCell id="HavgDcFnVHiz-q8iYQLe-197" style="edgeStyle=none;rounded=0;orthogonalLoop=1;jettySize=auto;html=1;entryX=0;entryY=0.5;entryDx=0;entryDy=0;labelBackgroundColor=#FF3333;fontFamily=Helvetica;fontSize=28;fontColor=#0808FF;startArrow=none;startFill=1;endArrow=classic;endFill=1;strokeColor=#009900;strokeWidth=3;fillColor=#CC0066;" edge="1" parent="1" source="HavgDcFnVHiz-q8iYQLe-225" target="HavgDcFnVHiz-q8iYQLe-160">
          <mxGeometry relative="1" as="geometry" />
        </mxCell>
        <mxCell id="HavgDcFnVHiz-q8iYQLe-227" style="edgeStyle=none;rounded=0;orthogonalLoop=1;jettySize=auto;html=1;entryX=0;entryY=0.5;entryDx=0;entryDy=0;labelBackgroundColor=#FF3333;fontFamily=Helvetica;fontSize=60;fontColor=#FF0000;startArrow=none;startFill=1;endArrow=classic;endFill=1;strokeColor=#009900;strokeWidth=3;fillColor=#CC0066;" edge="1" parent="1" source="HavgDcFnVHiz-q8iYQLe-233" target="HavgDcFnVHiz-q8iYQLe-199">
          <mxGeometry relative="1" as="geometry" />
        </mxCell>
        <mxCell id="HavgDcFnVHiz-q8iYQLe-159" value="DMZ" style="swimlane;fontFamily=Helvetica;fontSize=26;fontColor=#0808FF;strokeColor=default;fillColor=default;" vertex="1" parent="1">
          <mxGeometry x="-1235" y="1680" width="620" height="370" as="geometry" />
        </mxCell>
        <mxCell id="HavgDcFnVHiz-q8iYQLe-167" value="&lt;font style=&quot;font-size: 20px&quot; color=&quot;#000000&quot;&gt;MailServer&lt;br&gt;&lt;/font&gt;" style="verticalLabelPosition=bottom;sketch=0;aspect=fixed;html=1;verticalAlign=top;strokeColor=none;align=center;outlineConnect=0;shape=mxgraph.citrix.proxy_server;fontFamily=Helvetica;fontSize=43;fontColor=#FF3333;fillColor=default;" vertex="1" parent="HavgDcFnVHiz-q8iYQLe-159">
          <mxGeometry x="50" y="80.00000000000009" width="119" height="140" as="geometry" />
        </mxCell>
        <mxCell id="HavgDcFnVHiz-q8iYQLe-168" value="&lt;font style=&quot;font-size: 20px&quot; color=&quot;#000000&quot;&gt;SMS&lt;br&gt;&lt;/font&gt;" style="verticalLabelPosition=bottom;sketch=0;aspect=fixed;html=1;verticalAlign=top;strokeColor=none;align=center;outlineConnect=0;shape=mxgraph.citrix.proxy_server;fontFamily=Helvetica;fontSize=43;fontColor=#FF3333;fillColor=default;" vertex="1" parent="HavgDcFnVHiz-q8iYQLe-159">
          <mxGeometry x="220" y="80.00000000000009" width="119" height="140" as="geometry" />
        </mxCell>
        <mxCell id="HavgDcFnVHiz-q8iYQLe-147" value="&lt;font style=&quot;font-size: 20px&quot; color=&quot;#000000&quot;&gt;WebServer&lt;br&gt;&lt;/font&gt;" style="verticalLabelPosition=bottom;sketch=0;aspect=fixed;html=1;verticalAlign=top;strokeColor=none;align=center;outlineConnect=0;shape=mxgraph.citrix.proxy_server;fontFamily=Helvetica;fontSize=43;fontColor=#FF3333;fillColor=default;" vertex="1" parent="HavgDcFnVHiz-q8iYQLe-159">
          <mxGeometry x="390" y="80" width="119" height="140" as="geometry" />
        </mxCell>
        <mxCell id="HavgDcFnVHiz-q8iYQLe-160" value="Internal" style="swimlane;fontFamily=Helvetica;fontSize=26;fontColor=#0808FF;strokeColor=default;fillColor=default;" vertex="1" parent="1">
          <mxGeometry x="-1370" y="2440" width="755" height="760" as="geometry" />
        </mxCell>
        <mxCell id="HavgDcFnVHiz-q8iYQLe-134" value="" style="group;strokeWidth=2;" vertex="1" connectable="0" parent="HavgDcFnVHiz-q8iYQLe-160">
          <mxGeometry x="55" y="79" width="150" height="208.9999999999999" as="geometry" />
        </mxCell>
        <mxCell id="HavgDcFnVHiz-q8iYQLe-135" value="" style="group;strokeWidth=2;" vertex="1" connectable="0" parent="HavgDcFnVHiz-q8iYQLe-134">
          <mxGeometry x="3.75" width="135.75" height="162.39999999999998" as="geometry" />
        </mxCell>
        <mxCell id="HavgDcFnVHiz-q8iYQLe-136" value="" style="verticalLabelPosition=bottom;aspect=fixed;html=1;verticalAlign=top;strokeColor=none;align=center;outlineConnect=0;shape=mxgraph.citrix.web_server;fontSize=20;strokeWidth=2;" vertex="1" parent="HavgDcFnVHiz-q8iYQLe-135">
          <mxGeometry width="110.5" height="130" as="geometry" />
        </mxCell>
        <mxCell id="HavgDcFnVHiz-q8iYQLe-137" value="" style="verticalLabelPosition=bottom;aspect=fixed;html=1;verticalAlign=top;strokeColor=none;align=center;outlineConnect=0;shape=mxgraph.citrix.web_server;fontSize=20;strokeWidth=2;" vertex="1" parent="HavgDcFnVHiz-q8iYQLe-135">
          <mxGeometry x="25.25" y="32.39999999999998" width="110.5" height="130" as="geometry" />
        </mxCell>
        <mxCell id="HavgDcFnVHiz-q8iYQLe-138" value="支付中心" style="text;html=1;strokeColor=none;fillColor=none;align=center;verticalAlign=middle;whiteSpace=wrap;rounded=0;fontSize=20;strokeWidth=2;" vertex="1" parent="HavgDcFnVHiz-q8iYQLe-134">
          <mxGeometry y="162.5999999999999" width="150" height="46.4" as="geometry" />
        </mxCell>
        <mxCell id="HavgDcFnVHiz-q8iYQLe-139" value="" style="group;strokeWidth=2;" vertex="1" connectable="0" parent="HavgDcFnVHiz-q8iYQLe-160">
          <mxGeometry x="250" y="71.90000000000009" width="150" height="208.9999999999999" as="geometry" />
        </mxCell>
        <mxCell id="HavgDcFnVHiz-q8iYQLe-140" value="" style="group;strokeWidth=2;" vertex="1" connectable="0" parent="HavgDcFnVHiz-q8iYQLe-139">
          <mxGeometry x="3.75" width="135.75" height="162.39999999999998" as="geometry" />
        </mxCell>
        <mxCell id="HavgDcFnVHiz-q8iYQLe-141" value="" style="verticalLabelPosition=bottom;aspect=fixed;html=1;verticalAlign=top;strokeColor=none;align=center;outlineConnect=0;shape=mxgraph.citrix.web_server;fontSize=20;strokeWidth=2;" vertex="1" parent="HavgDcFnVHiz-q8iYQLe-140">
          <mxGeometry width="110.5" height="130" as="geometry" />
        </mxCell>
        <mxCell id="HavgDcFnVHiz-q8iYQLe-142" value="" style="verticalLabelPosition=bottom;aspect=fixed;html=1;verticalAlign=top;strokeColor=none;align=center;outlineConnect=0;shape=mxgraph.citrix.web_server;fontSize=20;strokeWidth=2;" vertex="1" parent="HavgDcFnVHiz-q8iYQLe-140">
          <mxGeometry x="25.25" y="32.39999999999998" width="110.5" height="130" as="geometry" />
        </mxCell>
        <mxCell id="HavgDcFnVHiz-q8iYQLe-143" value="APP Server" style="text;html=1;strokeColor=none;fillColor=none;align=center;verticalAlign=middle;whiteSpace=wrap;rounded=0;fontSize=20;strokeWidth=2;" vertex="1" parent="HavgDcFnVHiz-q8iYQLe-139">
          <mxGeometry y="162.5999999999999" width="150" height="46.4" as="geometry" />
        </mxCell>
        <mxCell id="HavgDcFnVHiz-q8iYQLe-144" value="DataBase Server" style="sketch=0;shadow=0;dashed=0;html=1;strokeColor=none;fillColor=#505050;labelPosition=center;verticalLabelPosition=bottom;verticalAlign=top;outlineConnect=0;align=center;shape=mxgraph.office.databases.database_server_blue;fontFamily=Helvetica;fontSize=20;fontColor=#000000;" vertex="1" parent="HavgDcFnVHiz-q8iYQLe-160">
          <mxGeometry x="475" y="88" width="110" height="140" as="geometry" />
        </mxCell>
        <mxCell id="HavgDcFnVHiz-q8iYQLe-172" value="Storage" style="points=[];aspect=fixed;html=1;align=center;shadow=0;dashed=0;image;image=img/lib/allied_telesis/storage/Datacenter_Server_Storage_Unit_Large.svg;fontFamily=Helvetica;fontSize=28;fontColor=#0808FF;strokeColor=default;fillColor=default;" vertex="1" parent="HavgDcFnVHiz-q8iYQLe-160">
          <mxGeometry x="86" y="420" width="76.8" height="79.2" as="geometry" />
        </mxCell>
        <mxCell id="HavgDcFnVHiz-q8iYQLe-175" value="BatchServer&lt;br&gt;" style="outlineConnect=0;dashed=0;verticalLabelPosition=bottom;verticalAlign=top;align=center;html=1;shape=mxgraph.aws3.batch;fillColor=#F58534;gradientColor=none;fontFamily=Helvetica;fontSize=28;fontColor=#0808FF;strokeColor=default;" vertex="1" parent="HavgDcFnVHiz-q8iYQLe-160">
          <mxGeometry x="280" y="380" width="76.5" height="93" as="geometry" />
        </mxCell>
        <mxCell id="HavgDcFnVHiz-q8iYQLe-145" value="DataBase Server" style="sketch=0;shadow=0;dashed=0;html=1;strokeColor=none;fillColor=#505050;labelPosition=center;verticalLabelPosition=bottom;verticalAlign=top;outlineConnect=0;align=center;shape=mxgraph.office.databases.database_server_blue;fontFamily=Helvetica;fontSize=20;fontColor=#000000;" vertex="1" parent="HavgDcFnVHiz-q8iYQLe-160">
          <mxGeometry x="185" y="580" width="110" height="140" as="geometry" />
        </mxCell>
        <mxCell id="HavgDcFnVHiz-q8iYQLe-198" value="FTP Server" style="verticalLabelPosition=bottom;sketch=0;aspect=fixed;html=1;verticalAlign=top;strokeColor=none;align=center;outlineConnect=0;shape=mxgraph.citrix.ftp_server;fontFamily=Helvetica;fontSize=28;fontColor=#0808FF;fillColor=default;" vertex="1" parent="HavgDcFnVHiz-q8iYQLe-160">
          <mxGeometry x="605" y="270" width="101.82" height="139.1" as="geometry" />
        </mxCell>
        <mxCell id="HavgDcFnVHiz-q8iYQLe-199" value="MW" style="swimlane;fontFamily=Helvetica;fontSize=26;fontColor=#0808FF;strokeColor=default;fillColor=default;" vertex="1" parent="1">
          <mxGeometry x="-1248" y="2161.5" width="620" height="238.5" as="geometry" />
        </mxCell>
        <mxCell id="HavgDcFnVHiz-q8iYQLe-205" value="NTP" style="verticalLabelPosition=bottom;sketch=0;html=1;fillColor=#A153A0;strokeColor=#ffffff;verticalAlign=top;align=center;points=[[0,0.5,0],[0.125,0.25,0],[0.25,0,0],[0.5,0,0],[0.75,0,0],[0.875,0.25,0],[1,0.5,0],[0.875,0.75,0],[0.75,1,0],[0.5,1,0],[0.125,0.75,0]];pointerEvents=1;shape=mxgraph.cisco_safe.compositeIcon;bgIcon=mxgraph.cisco_safe.design.blank_device;resIcon=mxgraph.cisco_safe.design.ntp;fontFamily=Helvetica;fontSize=28;fontColor=#0808FF;" vertex="1" parent="HavgDcFnVHiz-q8iYQLe-199">
          <mxGeometry x="40" y="60" width="90" height="80" as="geometry" />
        </mxCell>
        <mxCell id="HavgDcFnVHiz-q8iYQLe-154" value="&lt;font style=&quot;font-size: 20px&quot; color=&quot;#000000&quot;&gt;Proxy Server&lt;br&gt;&lt;/font&gt;" style="verticalLabelPosition=bottom;sketch=0;aspect=fixed;html=1;verticalAlign=top;strokeColor=none;align=center;outlineConnect=0;shape=mxgraph.citrix.proxy_server;fontFamily=Helvetica;fontSize=43;fontColor=#FF3333;fillColor=default;" vertex="1" parent="HavgDcFnVHiz-q8iYQLe-199">
          <mxGeometry x="191" y="36.500000000000114" width="119" height="140" as="geometry" />
        </mxCell>
        <mxCell id="HavgDcFnVHiz-q8iYQLe-155" value="&lt;font style=&quot;font-size: 20px&quot; color=&quot;#000000&quot;&gt;Proxy Server&lt;br&gt;&lt;/font&gt;" style="verticalLabelPosition=bottom;sketch=0;aspect=fixed;html=1;verticalAlign=top;strokeColor=none;align=center;outlineConnect=0;shape=mxgraph.citrix.proxy_server;fontFamily=Helvetica;fontSize=43;fontColor=#FF3333;fillColor=default;" vertex="1" parent="HavgDcFnVHiz-q8iYQLe-199">
          <mxGeometry x="350" y="36.5" width="119" height="140" as="geometry" />
        </mxCell>
        <mxCell id="HavgDcFnVHiz-q8iYQLe-212" value="" style="group" vertex="1" connectable="0" parent="1">
          <mxGeometry x="-3370" y="1873.5" width="415.0799999999999" height="261.5" as="geometry" />
        </mxCell>
        <mxCell id="HavgDcFnVHiz-q8iYQLe-210" value="" style="aspect=fixed;perimeter=ellipsePerimeter;html=1;align=center;shadow=0;dashed=0;spacingTop=3;image;image=img/lib/active_directory/internet_cloud.svg;fontFamily=Helvetica;fontSize=28;fontColor=#0808FF;strokeColor=default;fillColor=default;" vertex="1" parent="HavgDcFnVHiz-q8iYQLe-212">
          <mxGeometry width="415.08" height="261.5" as="geometry" />
        </mxCell>
        <mxCell id="HavgDcFnVHiz-q8iYQLe-211" value="&lt;span style=&quot;font-size: 60px&quot;&gt;中華電信&lt;/span&gt;" style="text;html=1;align=center;verticalAlign=middle;resizable=0;points=[];autosize=1;strokeColor=none;fillColor=none;fontSize=28;fontFamily=Helvetica;fontColor=#FF0000;" vertex="1" parent="HavgDcFnVHiz-q8iYQLe-212">
          <mxGeometry x="77.53999999999996" y="105.75" width="260" height="50" as="geometry" />
        </mxCell>
        <mxCell id="HavgDcFnVHiz-q8iYQLe-213" value="" style="aspect=fixed;perimeter=ellipsePerimeter;html=1;align=center;shadow=0;dashed=0;spacingTop=3;image;image=img/lib/active_directory/internet_cloud.svg;fontFamily=Helvetica;fontSize=28;fontColor=#0808FF;strokeColor=default;fillColor=default;" vertex="1" parent="1">
          <mxGeometry x="-3360" y="2202" width="415.08" height="261.5" as="geometry" />
        </mxCell>
        <mxCell id="HavgDcFnVHiz-q8iYQLe-214" value="&lt;br&gt;遠傳" style="text;html=1;align=center;verticalAlign=middle;resizable=0;points=[];autosize=1;strokeColor=none;fillColor=none;fontSize=60;fontFamily=Helvetica;fontColor=#FF0000;" vertex="1" parent="1">
          <mxGeometry x="-3222.46" y="2229.25" width="140" height="150" as="geometry" />
        </mxCell>
        <mxCell id="HavgDcFnVHiz-q8iYQLe-217" value="" style="sketch=0;aspect=fixed;pointerEvents=1;shadow=0;dashed=0;html=1;strokeColor=none;labelPosition=center;verticalLabelPosition=bottom;verticalAlign=top;align=center;fillColor=#00188D;shape=mxgraph.mscae.enterprise.router;fontFamily=Helvetica;fontSize=60;fontColor=#FF0000;" vertex="1" parent="1">
          <mxGeometry x="-3040" y="2063.5" width="256.41" height="200" as="geometry" />
        </mxCell>
        <mxCell id="HavgDcFnVHiz-q8iYQLe-219" value="" style="edgeStyle=none;rounded=0;orthogonalLoop=1;jettySize=auto;html=1;labelBackgroundColor=#FF3333;fontFamily=Helvetica;fontSize=26;fontColor=#0808FF;startArrow=none;startFill=0;endArrow=none;endFill=1;strokeColor=#009900;strokeWidth=3;fillColor=#CC0066;entryX=0;entryY=0.5;entryDx=0;entryDy=0;" edge="1" parent="1" source="HavgDcFnVHiz-q8iYQLe-217" target="HavgDcFnVHiz-q8iYQLe-221">
          <mxGeometry relative="1" as="geometry">
            <mxPoint x="-2510" y="2068.787403131426" as="sourcePoint" />
            <mxPoint x="-2146.46" y="2130.909154628601" as="targetPoint" />
          </mxGeometry>
        </mxCell>
        <mxCell id="HavgDcFnVHiz-q8iYQLe-231" style="edgeStyle=none;rounded=0;orthogonalLoop=1;jettySize=auto;html=1;entryX=0;entryY=0.5;entryDx=0;entryDy=0;labelBackgroundColor=#FF3333;fontFamily=Helvetica;fontSize=60;fontColor=#FF0000;startArrow=classic;startFill=1;endArrow=classic;endFill=1;strokeColor=#009900;strokeWidth=3;fillColor=#CC0066;" edge="1" parent="1" source="HavgDcFnVHiz-q8iYQLe-221" target="HavgDcFnVHiz-q8iYQLe-230">
          <mxGeometry relative="1" as="geometry" />
        </mxCell>
        <mxCell id="HavgDcFnVHiz-q8iYQLe-221" value="" style="swimlane;fontFamily=Helvetica;fontSize=60;fontColor=#FF0000;strokeColor=default;fillColor=default;" vertex="1" parent="1">
          <mxGeometry x="-2710" y="1810" width="400" height="590" as="geometry" />
        </mxCell>
        <mxCell id="HavgDcFnVHiz-q8iYQLe-209" value="" style="aspect=fixed;html=1;points=[];align=center;image;fontSize=12;image=img/lib/azure2/networking/DNS_Zones.svg;fontFamily=Helvetica;fontColor=#0808FF;strokeColor=default;fillColor=default;" vertex="1" parent="HavgDcFnVHiz-q8iYQLe-221">
          <mxGeometry x="115.54" y="460" width="100" height="100" as="geometry" />
        </mxCell>
        <mxCell id="HavgDcFnVHiz-q8iYQLe-194" value="F5" style="strokeColor=#666666;html=1;labelPosition=right;align=left;spacingLeft=15;shadow=0;dashed=0;outlineConnect=0;shape=mxgraph.rack.f5.big_ip_6900;fontFamily=Helvetica;fontSize=28;fontColor=#0808FF;fillColor=default;" vertex="1" parent="HavgDcFnVHiz-q8iYQLe-221">
          <mxGeometry x="74.6900000000001" y="100" width="210" height="120" as="geometry" />
        </mxCell>
        <mxCell id="HavgDcFnVHiz-q8iYQLe-161" value="IPS" style="sketch=0;points=[[0.015,0.015,0],[0.985,0.015,0],[0.985,0.985,0],[0.015,0.985,0],[0.25,0,0],[0.5,0,0],[0.75,0,0],[1,0.25,0],[1,0.5,0],[1,0.75,0],[0.75,1,0],[0.5,1,0],[0.25,1,0],[0,0.75,0],[0,0.5,0],[0,0.25,0]];verticalLabelPosition=bottom;html=1;verticalAlign=top;aspect=fixed;align=center;pointerEvents=1;shape=mxgraph.cisco19.rect;prIcon=ips_ids;fillColor=#FAFAFA;strokeColor=#005073;fontFamily=Helvetica;fontSize=26;fontColor=#0808FF;" vertex="1" parent="HavgDcFnVHiz-q8iYQLe-221">
          <mxGeometry x="64.84000000000019" y="318" width="102.4" height="80" as="geometry" />
        </mxCell>
        <mxCell id="HavgDcFnVHiz-q8iYQLe-169" value="&lt;font style=&quot;font-size: 28px&quot; color=&quot;#0808ff&quot;&gt;WAF&lt;/font&gt;" style="sketch=0;points=[[0,0,0],[0.25,0,0],[0.5,0,0],[0.75,0,0],[1,0,0],[0,1,0],[0.25,1,0],[0.5,1,0],[0.75,1,0],[1,1,0],[0,0.25,0],[0,0.5,0],[0,0.75,0],[1,0.25,0],[1,0.5,0],[1,0.75,0]];outlineConnect=0;fontColor=#232F3E;gradientColor=#F54749;gradientDirection=north;fillColor=#C7131F;strokeColor=#ffffff;dashed=0;verticalLabelPosition=bottom;verticalAlign=top;align=center;html=1;fontSize=12;fontStyle=0;aspect=fixed;shape=mxgraph.aws4.resourceIcon;resIcon=mxgraph.aws4.waf;fontFamily=Helvetica;" vertex="1" parent="HavgDcFnVHiz-q8iYQLe-221">
          <mxGeometry x="215.54000000000002" y="318" width="78" height="78" as="geometry" />
        </mxCell>
        <mxCell id="HavgDcFnVHiz-q8iYQLe-223" value="" style="aspect=fixed;perimeter=ellipsePerimeter;html=1;align=center;shadow=0;dashed=0;spacingTop=3;image;image=img/lib/active_directory/firewall.svg;fontFamily=Helvetica;fontSize=43;fontColor=#FF3333;strokeColor=default;fillColor=default;" vertex="1" parent="1">
          <mxGeometry x="-1780" y="1890" width="67.1" height="110" as="geometry" />
        </mxCell>
        <mxCell id="HavgDcFnVHiz-q8iYQLe-224" value="" style="edgeStyle=none;rounded=0;orthogonalLoop=1;jettySize=auto;html=1;labelBackgroundColor=#FF3333;fontFamily=Helvetica;fontSize=28;fontColor=#0808FF;startArrow=classic;startFill=1;endArrow=none;endFill=1;strokeColor=#009900;strokeWidth=3;fillColor=#CC0066;entryX=0;entryY=0.5;entryDx=0;entryDy=0;" edge="1" parent="1" source="HavgDcFnVHiz-q8iYQLe-230" target="HavgDcFnVHiz-q8iYQLe-223">
          <mxGeometry relative="1" as="geometry">
            <mxPoint x="-1833.54" y="2021.986991595215" as="sourcePoint" />
            <mxPoint x="-1360" y="1790" as="targetPoint" />
          </mxGeometry>
        </mxCell>
        <mxCell id="HavgDcFnVHiz-q8iYQLe-225" value="" style="aspect=fixed;perimeter=ellipsePerimeter;html=1;align=center;shadow=0;dashed=0;spacingTop=3;image;image=img/lib/active_directory/firewall.svg;fontFamily=Helvetica;fontSize=43;fontColor=#FF3333;strokeColor=default;fillColor=default;" vertex="1" parent="1">
          <mxGeometry x="-1767.1" y="2300" width="67.1" height="110" as="geometry" />
        </mxCell>
        <mxCell id="HavgDcFnVHiz-q8iYQLe-226" value="" style="edgeStyle=none;rounded=0;orthogonalLoop=1;jettySize=auto;html=1;entryX=0;entryY=0.5;entryDx=0;entryDy=0;labelBackgroundColor=#FF3333;fontFamily=Helvetica;fontSize=28;fontColor=#0808FF;startArrow=classic;startFill=1;endArrow=none;endFill=1;strokeColor=#009900;strokeWidth=3;fillColor=#CC0066;exitX=1;exitY=0.5;exitDx=0;exitDy=0;" edge="1" parent="1" source="HavgDcFnVHiz-q8iYQLe-230" target="HavgDcFnVHiz-q8iYQLe-225">
          <mxGeometry relative="1" as="geometry">
            <mxPoint x="-1871.0112431444313" y="2187.5" as="sourcePoint" />
            <mxPoint x="-1370" y="2820" as="targetPoint" />
          </mxGeometry>
        </mxCell>
        <mxCell id="HavgDcFnVHiz-q8iYQLe-228" value="" style="aspect=fixed;perimeter=ellipsePerimeter;html=1;align=center;shadow=0;dashed=0;spacingTop=3;image;image=img/lib/active_directory/firewall.svg;fontFamily=Helvetica;fontSize=43;fontColor=#FF3333;strokeColor=default;fillColor=default;" vertex="1" parent="1">
          <mxGeometry x="-1767.1" y="2100" width="67.1" height="110" as="geometry" />
        </mxCell>
        <mxCell id="HavgDcFnVHiz-q8iYQLe-229" value="" style="edgeStyle=none;rounded=0;orthogonalLoop=1;jettySize=auto;html=1;entryX=0;entryY=0.5;entryDx=0;entryDy=0;labelBackgroundColor=#FF3333;fontFamily=Helvetica;fontSize=60;fontColor=#FF0000;startArrow=classic;startFill=1;endArrow=none;endFill=1;strokeColor=#009900;strokeWidth=3;fillColor=#CC0066;exitX=1;exitY=0.5;exitDx=0;exitDy=0;" edge="1" parent="1" source="HavgDcFnVHiz-q8iYQLe-230" target="HavgDcFnVHiz-q8iYQLe-228">
          <mxGeometry relative="1" as="geometry">
            <mxPoint x="-1833.54" y="2114.8876713045265" as="sourcePoint" />
            <mxPoint x="-1360" y="2280.75" as="targetPoint" />
          </mxGeometry>
        </mxCell>
        <mxCell id="HavgDcFnVHiz-q8iYQLe-230" value="" style="aspect=fixed;perimeter=ellipsePerimeter;html=1;align=center;shadow=0;dashed=0;spacingTop=3;image;image=img/lib/active_directory/firewall.svg;fontFamily=Helvetica;fontSize=43;fontColor=#FF3333;strokeColor=default;fillColor=default;" vertex="1" parent="1">
          <mxGeometry x="-2200" y="2050" width="67.1" height="110" as="geometry" />
        </mxCell>
        <mxCell id="HavgDcFnVHiz-q8iYQLe-234" value="" style="points=[];aspect=fixed;html=1;align=center;shadow=0;dashed=0;image;image=img/lib/allied_telesis/switch/Switch_24_port_L2_POE.svg;fontFamily=Helvetica;fontSize=60;fontColor=#FF0000;strokeColor=default;fillColor=default;" vertex="1" parent="1">
          <mxGeometry x="-1533.4" y="1839" width="74.4" height="51" as="geometry" />
        </mxCell>
        <mxCell id="HavgDcFnVHiz-q8iYQLe-235" value="" style="edgeStyle=none;rounded=0;orthogonalLoop=1;jettySize=auto;html=1;labelBackgroundColor=#FF3333;fontFamily=Helvetica;fontSize=28;fontColor=#0808FF;startArrow=none;startFill=1;endArrow=none;endFill=1;strokeColor=#009900;strokeWidth=3;fillColor=#CC0066;entryX=0;entryY=0.5;entryDx=0;entryDy=0;" edge="1" parent="1" source="HavgDcFnVHiz-q8iYQLe-223" target="HavgDcFnVHiz-q8iYQLe-234">
          <mxGeometry relative="1" as="geometry">
            <mxPoint x="-1634.4044717068346" y="1928.7145675887205" as="sourcePoint" />
            <mxPoint x="-1360" y="1790" as="targetPoint" />
          </mxGeometry>
        </mxCell>
        <mxCell id="HavgDcFnVHiz-q8iYQLe-233" value="" style="points=[];aspect=fixed;html=1;align=center;shadow=0;dashed=0;image;image=img/lib/allied_telesis/switch/Switch_24_port_L2_POE.svg;fontFamily=Helvetica;fontSize=60;fontColor=#FF0000;strokeColor=default;fillColor=default;" vertex="1" parent="1">
          <mxGeometry x="-1550" y="2192" width="157.55" height="108" as="geometry" />
        </mxCell>
        <mxCell id="HavgDcFnVHiz-q8iYQLe-236" value="" style="edgeStyle=none;rounded=0;orthogonalLoop=1;jettySize=auto;html=1;entryX=0;entryY=0.5;entryDx=0;entryDy=0;labelBackgroundColor=#FF3333;fontFamily=Helvetica;fontSize=60;fontColor=#FF0000;startArrow=none;startFill=1;endArrow=none;endFill=1;strokeColor=#009900;strokeWidth=3;fillColor=#CC0066;" edge="1" parent="1" source="HavgDcFnVHiz-q8iYQLe-228" target="HavgDcFnVHiz-q8iYQLe-233">
          <mxGeometry relative="1" as="geometry">
            <mxPoint x="-1583.3982270607985" y="2183.693363696915" as="sourcePoint" />
            <mxPoint x="-1248" y="2280.75" as="targetPoint" />
          </mxGeometry>
        </mxCell>
        <mxCell id="HavgDcFnVHiz-q8iYQLe-237" value="" style="points=[];aspect=fixed;html=1;align=center;shadow=0;dashed=0;image;image=img/lib/allied_telesis/switch/Switch_24_port_L2_POE.svg;fontFamily=Helvetica;fontSize=60;fontColor=#FF0000;strokeColor=default;fillColor=default;" vertex="1" parent="1">
          <mxGeometry x="-1610" y="2540" width="74.4" height="51" as="geometry" />
        </mxCell>
        <mxCell id="HavgDcFnVHiz-q8iYQLe-266" value="" style="verticalLabelPosition=bottom;verticalAlign=top;html=1;shadow=0;dashed=0;strokeWidth=1;shape=mxgraph.ios.iCloudProgressBar;barPos=0;fontFamily=Helvetica;fontSize=43;fillColor=default;strokeColor=default;" vertex="1" parent="1">
          <mxGeometry x="-1186.85" y="390" width="1600" height="10" as="geometry" />
        </mxCell>
        <mxCell id="HavgDcFnVHiz-q8iYQLe-267" value="" style="endArrow=none;html=1;rounded=0;labelBackgroundColor=#FF3333;fontFamily=Helvetica;fontSize=43;fontColor=#FF3333;strokeColor=#000000;strokeWidth=6;shape=connector;startArrow=none;" edge="1" parent="1" source="HavgDcFnVHiz-q8iYQLe-322">
          <mxGeometry width="50" height="50" relative="1" as="geometry">
            <mxPoint x="-1060.85" y="1454.5" as="sourcePoint" />
            <mxPoint x="-1060.85" y="314.5" as="targetPoint" />
          </mxGeometry>
        </mxCell>
        <mxCell id="HavgDcFnVHiz-q8iYQLe-268" value="DMZ" style="text;html=1;align=center;verticalAlign=middle;resizable=0;points=[];autosize=1;strokeColor=none;fillColor=none;fontSize=43;fontFamily=Helvetica;fontColor=#0808FF;" vertex="1" parent="1">
          <mxGeometry x="-1020.85" y="310" width="110" height="60" as="geometry" />
        </mxCell>
        <mxCell id="HavgDcFnVHiz-q8iYQLe-269" value="" style="endArrow=none;html=1;rounded=0;labelBackgroundColor=#FF3333;fontFamily=Helvetica;fontSize=43;fontColor=#FF3333;strokeColor=#000000;strokeWidth=6;shape=connector;startArrow=none;" edge="1" parent="1" source="HavgDcFnVHiz-q8iYQLe-324">
          <mxGeometry width="50" height="50" relative="1" as="geometry">
            <mxPoint x="-456.85" y="1450" as="sourcePoint" />
            <mxPoint x="-456.85" y="319.99999999999955" as="targetPoint" />
          </mxGeometry>
        </mxCell>
        <mxCell id="HavgDcFnVHiz-q8iYQLe-270" value="INT" style="text;html=1;align=center;verticalAlign=middle;resizable=0;points=[];autosize=1;strokeColor=none;fillColor=none;fontSize=43;fontFamily=Helvetica;fontColor=#0808FF;" vertex="1" parent="1">
          <mxGeometry x="-386.85" y="320" width="90" height="60" as="geometry" />
        </mxCell>
        <mxCell id="HavgDcFnVHiz-q8iYQLe-271" value="" style="group;strokeWidth=2;" vertex="1" connectable="0" parent="1">
          <mxGeometry x="-386.85" y="450" width="150" height="208.9999999999999" as="geometry" />
        </mxCell>
        <mxCell id="HavgDcFnVHiz-q8iYQLe-272" value="" style="group;strokeWidth=2;" vertex="1" connectable="0" parent="HavgDcFnVHiz-q8iYQLe-271">
          <mxGeometry x="3.75" width="135.75" height="162.39999999999998" as="geometry" />
        </mxCell>
        <mxCell id="HavgDcFnVHiz-q8iYQLe-273" value="" style="verticalLabelPosition=bottom;aspect=fixed;html=1;verticalAlign=top;strokeColor=none;align=center;outlineConnect=0;shape=mxgraph.citrix.web_server;fontSize=20;strokeWidth=2;" vertex="1" parent="HavgDcFnVHiz-q8iYQLe-272">
          <mxGeometry width="110.5" height="130" as="geometry" />
        </mxCell>
        <mxCell id="HavgDcFnVHiz-q8iYQLe-274" value="" style="verticalLabelPosition=bottom;aspect=fixed;html=1;verticalAlign=top;strokeColor=none;align=center;outlineConnect=0;shape=mxgraph.citrix.web_server;fontSize=20;strokeWidth=2;" vertex="1" parent="HavgDcFnVHiz-q8iYQLe-272">
          <mxGeometry x="25.25" y="32.39999999999998" width="110.5" height="130" as="geometry" />
        </mxCell>
        <mxCell id="HavgDcFnVHiz-q8iYQLe-275" value="支付中心" style="text;html=1;strokeColor=none;fillColor=none;align=center;verticalAlign=middle;whiteSpace=wrap;rounded=0;fontSize=20;strokeWidth=2;" vertex="1" parent="HavgDcFnVHiz-q8iYQLe-271">
          <mxGeometry y="162.5999999999999" width="150" height="46.4" as="geometry" />
        </mxCell>
        <mxCell id="HavgDcFnVHiz-q8iYQLe-276" value="" style="group;strokeWidth=2;" vertex="1" connectable="0" parent="1">
          <mxGeometry x="-386.85" y="780" width="150" height="208.9999999999999" as="geometry" />
        </mxCell>
        <mxCell id="HavgDcFnVHiz-q8iYQLe-277" value="" style="group;strokeWidth=2;" vertex="1" connectable="0" parent="HavgDcFnVHiz-q8iYQLe-276">
          <mxGeometry x="3.75" width="135.75" height="162.39999999999998" as="geometry" />
        </mxCell>
        <mxCell id="HavgDcFnVHiz-q8iYQLe-278" value="" style="verticalLabelPosition=bottom;aspect=fixed;html=1;verticalAlign=top;strokeColor=none;align=center;outlineConnect=0;shape=mxgraph.citrix.web_server;fontSize=20;strokeWidth=2;" vertex="1" parent="HavgDcFnVHiz-q8iYQLe-277">
          <mxGeometry width="110.5" height="130" as="geometry" />
        </mxCell>
        <mxCell id="HavgDcFnVHiz-q8iYQLe-279" value="" style="verticalLabelPosition=bottom;aspect=fixed;html=1;verticalAlign=top;strokeColor=none;align=center;outlineConnect=0;shape=mxgraph.citrix.web_server;fontSize=20;strokeWidth=2;" vertex="1" parent="HavgDcFnVHiz-q8iYQLe-277">
          <mxGeometry x="25.25" y="32.39999999999998" width="110.5" height="130" as="geometry" />
        </mxCell>
        <mxCell id="HavgDcFnVHiz-q8iYQLe-280" value="APP Server" style="text;html=1;strokeColor=none;fillColor=none;align=center;verticalAlign=middle;whiteSpace=wrap;rounded=0;fontSize=20;strokeWidth=2;" vertex="1" parent="HavgDcFnVHiz-q8iYQLe-276">
          <mxGeometry y="162.5999999999999" width="150" height="46.4" as="geometry" />
        </mxCell>
        <mxCell id="HavgDcFnVHiz-q8iYQLe-281" value="&lt;font style=&quot;font-size: 20px&quot; color=&quot;#000000&quot;&gt;WebServer&lt;br&gt;&lt;br&gt;&lt;/font&gt;" style="verticalLabelPosition=bottom;sketch=0;aspect=fixed;html=1;verticalAlign=top;strokeColor=none;align=center;outlineConnect=0;shape=mxgraph.citrix.proxy_server;fontFamily=Helvetica;fontSize=43;fontColor=#FF3333;fillColor=default;" vertex="1" parent="1">
          <mxGeometry x="-946.85" y="451.29999999999995" width="119" height="140" as="geometry" />
        </mxCell>
        <mxCell id="HavgDcFnVHiz-q8iYQLe-282" value="" style="endArrow=classic;startArrow=none;html=1;rounded=0;labelBackgroundColor=#FF3333;fontFamily=Helvetica;fontSize=20;fontColor=#000000;strokeColor=#00CC00;strokeWidth=3;fillColor=#CC0066;" edge="1" parent="1" source="HavgDcFnVHiz-q8iYQLe-318">
          <mxGeometry width="100" height="100" relative="1" as="geometry">
            <mxPoint x="-686.85" y="680" as="sourcePoint" />
            <mxPoint x="-386.85" y="520" as="targetPoint" />
          </mxGeometry>
        </mxCell>
        <mxCell id="HavgDcFnVHiz-q8iYQLe-283" value="&lt;font style=&quot;font-size: 20px&quot; color=&quot;#000000&quot;&gt;WebServer&lt;br&gt;&lt;/font&gt;" style="verticalLabelPosition=bottom;sketch=0;aspect=fixed;html=1;verticalAlign=top;strokeColor=none;align=center;outlineConnect=0;shape=mxgraph.citrix.proxy_server;fontFamily=Helvetica;fontSize=43;fontColor=#FF3333;fillColor=default;" vertex="1" parent="1">
          <mxGeometry x="-969.85" y="1031.8" width="119" height="140" as="geometry" />
        </mxCell>
        <mxCell id="HavgDcFnVHiz-q8iYQLe-284" value="" style="endArrow=none;dashed=1;html=1;rounded=0;labelBackgroundColor=#FF3333;fontFamily=Helvetica;fontSize=20;fontColor=#000000;strokeColor=#CC0066;strokeWidth=5;fillColor=#CC0066;shape=connector;" edge="1" parent="1">
          <mxGeometry width="50" height="50" relative="1" as="geometry">
            <mxPoint x="-386.85" y="729" as="sourcePoint" />
            <mxPoint x="383.15" y="729" as="targetPoint" />
          </mxGeometry>
        </mxCell>
        <mxCell id="HavgDcFnVHiz-q8iYQLe-285" value="" style="endArrow=none;dashed=1;html=1;rounded=0;labelBackgroundColor=#FF3333;fontFamily=Helvetica;fontSize=20;fontColor=#000000;strokeColor=#CC0066;strokeWidth=5;fillColor=#CC0066;shape=connector;" edge="1" parent="1">
          <mxGeometry width="50" height="50" relative="1" as="geometry">
            <mxPoint x="-166.85" y="1081.1429268973216" as="sourcePoint" />
            <mxPoint x="-166.85" y="460" as="targetPoint" />
          </mxGeometry>
        </mxCell>
        <mxCell id="HavgDcFnVHiz-q8iYQLe-286" value="DataBase Server" style="sketch=0;shadow=0;dashed=0;html=1;strokeColor=none;fillColor=#505050;labelPosition=center;verticalLabelPosition=bottom;verticalAlign=top;outlineConnect=0;align=center;shape=mxgraph.office.databases.database_server_blue;fontFamily=Helvetica;fontSize=20;fontColor=#000000;" vertex="1" parent="1">
          <mxGeometry x="-76.85" y="484.5" width="110" height="140" as="geometry" />
        </mxCell>
        <mxCell id="HavgDcFnVHiz-q8iYQLe-287" value="DataBase Server" style="sketch=0;shadow=0;dashed=0;html=1;strokeColor=none;fillColor=#505050;labelPosition=center;verticalLabelPosition=bottom;verticalAlign=top;outlineConnect=0;align=center;shape=mxgraph.office.databases.database_server_blue;fontFamily=Helvetica;fontSize=20;fontColor=#000000;" vertex="1" parent="1">
          <mxGeometry x="-76.85" y="814.5" width="110" height="140" as="geometry" />
        </mxCell>
        <mxCell id="HavgDcFnVHiz-q8iYQLe-288" value="" style="endArrow=classic;startArrow=none;html=1;rounded=0;labelBackgroundColor=#FF3333;fontFamily=Helvetica;fontSize=20;fontColor=#000000;strokeColor=#00CC00;strokeWidth=3;fillColor=#CC0066;startFill=0;" edge="1" parent="1" source="HavgDcFnVHiz-q8iYQLe-274">
          <mxGeometry width="100" height="100" relative="1" as="geometry">
            <mxPoint x="-276.85" y="529.9999999999995" as="sourcePoint" />
            <mxPoint x="-86.85" y="547" as="targetPoint" />
          </mxGeometry>
        </mxCell>
        <mxCell id="HavgDcFnVHiz-q8iYQLe-289" value="" style="endArrow=classic;startArrow=none;html=1;rounded=0;labelBackgroundColor=#FF3333;fontFamily=Helvetica;fontSize=20;fontColor=#000000;strokeColor=#3333FF;strokeWidth=3;fillColor=#CC0066;startFill=0;" edge="1" parent="1" source="HavgDcFnVHiz-q8iYQLe-279">
          <mxGeometry width="100" height="100" relative="1" as="geometry">
            <mxPoint x="-256.85" y="869.9972395369548" as="sourcePoint" />
            <mxPoint x="-86.85" y="877" as="targetPoint" />
          </mxGeometry>
        </mxCell>
        <mxCell id="HavgDcFnVHiz-q8iYQLe-290" value="" style="endArrow=classic;startArrow=classic;html=1;rounded=0;labelBackgroundColor=#FF3333;fontFamily=Helvetica;fontSize=20;fontColor=#000000;strokeColor=#3333FF;strokeWidth=3;fillColor=#CC0066;" edge="1" parent="1" source="HavgDcFnVHiz-q8iYQLe-328" target="HavgDcFnVHiz-q8iYQLe-279">
          <mxGeometry width="100" height="100" relative="1" as="geometry">
            <mxPoint x="-506.85" y="1010" as="sourcePoint" />
            <mxPoint x="-383.1" y="1010" as="targetPoint" />
          </mxGeometry>
        </mxCell>
        <mxCell id="HavgDcFnVHiz-q8iYQLe-291" value="" style="endArrow=none;startArrow=classic;html=1;rounded=0;labelBackgroundColor=#FF3333;fontFamily=Helvetica;fontSize=20;fontColor=#000000;strokeColor=#FF0000;strokeWidth=3;fillColor=#CC0066;endFill=0;" edge="1" parent="1" source="HavgDcFnVHiz-q8iYQLe-318" target="HavgDcFnVHiz-q8iYQLe-283">
          <mxGeometry width="100" height="100" relative="1" as="geometry">
            <mxPoint x="-336.85" y="689.9972395369548" as="sourcePoint" />
            <mxPoint x="-166.35" y="694.3090828138913" as="targetPoint" />
            <Array as="points">
              <mxPoint x="-860.85" y="780" />
            </Array>
          </mxGeometry>
        </mxCell>
        <mxCell id="HavgDcFnVHiz-q8iYQLe-292" value="iPASS PAY&lt;br style=&quot;font-size: 20px;&quot;&gt;(使用者端)" style="aspect=fixed;pointerEvents=1;shadow=0;dashed=0;html=1;strokeColor=none;labelPosition=center;verticalLabelPosition=bottom;verticalAlign=top;align=center;fillColor=#00188D;shape=mxgraph.mscae.enterprise.android_phone;fontSize=20;strokeWidth=2;" vertex="1" parent="1">
          <mxGeometry x="-1260.8499999999997" y="1340" width="72" height="120" as="geometry" />
        </mxCell>
        <mxCell id="HavgDcFnVHiz-q8iYQLe-293" value="" style="endArrow=classic;startArrow=none;html=1;rounded=0;labelBackgroundColor=#FF3333;fontFamily=Helvetica;fontSize=20;fontColor=#000000;strokeColor=#3333FF;strokeWidth=3;fillColor=#CC0066;startFill=0;" edge="1" parent="1" source="HavgDcFnVHiz-q8iYQLe-292" target="HavgDcFnVHiz-q8iYQLe-328">
          <mxGeometry width="100" height="100" relative="1" as="geometry">
            <mxPoint x="-772.35" y="779.8394941634238" as="sourcePoint" />
            <mxPoint x="-373.1" y="845.8633268482486" as="targetPoint" />
          </mxGeometry>
        </mxCell>
        <mxCell id="HavgDcFnVHiz-q8iYQLe-294" value="" style="group;strokeWidth=2;" vertex="1" connectable="0" parent="1">
          <mxGeometry x="-1380.85" y="466" width="160" height="159.99999999999991" as="geometry" />
        </mxCell>
        <mxCell id="HavgDcFnVHiz-q8iYQLe-295" value="" style="group;strokeWidth=2;" vertex="1" connectable="0" parent="HavgDcFnVHiz-q8iYQLe-294">
          <mxGeometry x="5" width="160" height="113.59999999999991" as="geometry" />
        </mxCell>
        <mxCell id="HavgDcFnVHiz-q8iYQLe-296" value="" style="pointerEvents=1;shadow=0;dashed=0;html=1;strokeColor=none;fillColor=#434445;aspect=fixed;labelPosition=center;verticalLabelPosition=bottom;verticalAlign=top;align=center;outlineConnect=0;shape=mxgraph.vvd.web_browser;fontSize=20;strokeWidth=2;" vertex="1" parent="HavgDcFnVHiz-q8iYQLe-295">
          <mxGeometry width="160" height="113.6" as="geometry" />
        </mxCell>
        <mxCell id="HavgDcFnVHiz-q8iYQLe-297" value="" style="shape=image;html=1;verticalAlign=top;verticalLabelPosition=bottom;labelBackgroundColor=#ffffff;imageAspect=0;aspect=fixed;image=https://cdn1.iconfinder.com/data/icons/logotypes/32/chrome-128.png;fontSize=20;strokeWidth=2;" vertex="1" parent="HavgDcFnVHiz-q8iYQLe-295">
          <mxGeometry x="5" y="4" width="20" height="20" as="geometry" />
        </mxCell>
        <mxCell id="HavgDcFnVHiz-q8iYQLe-298" value="商店帳務&lt;br&gt;管理系統" style="text;html=1;strokeColor=none;fillColor=none;align=center;verticalAlign=middle;whiteSpace=wrap;rounded=0;fontSize=20;strokeWidth=2;" vertex="1" parent="HavgDcFnVHiz-q8iYQLe-294">
          <mxGeometry x="5" y="113.59999999999991" width="150" height="46.4" as="geometry" />
        </mxCell>
        <mxCell id="HavgDcFnVHiz-q8iYQLe-299" value="" style="endArrow=classic;startArrow=none;html=1;rounded=0;labelBackgroundColor=#FF3333;fontFamily=Helvetica;fontSize=20;fontColor=#000000;strokeColor=#00CC00;strokeWidth=3;fillColor=#CC0066;startFill=0;" edge="1" parent="1" source="HavgDcFnVHiz-q8iYQLe-296" target="HavgDcFnVHiz-q8iYQLe-281">
          <mxGeometry width="100" height="100" relative="1" as="geometry">
            <mxPoint x="-1136.85" y="530" as="sourcePoint" />
            <mxPoint x="-738.8499999999996" y="530" as="targetPoint" />
          </mxGeometry>
        </mxCell>
        <mxCell id="HavgDcFnVHiz-q8iYQLe-300" value="" style="endArrow=classic;startArrow=none;html=1;rounded=0;labelBackgroundColor=#FF3333;fontFamily=Helvetica;fontSize=20;fontColor=#000000;strokeColor=#FF0000;strokeWidth=3;fillColor=#CC0066;startFill=0;" edge="1" parent="1">
          <mxGeometry width="100" height="100" relative="1" as="geometry">
            <mxPoint x="-246.85" y="571" as="sourcePoint" />
            <mxPoint x="-86.85" y="571" as="targetPoint" />
          </mxGeometry>
        </mxCell>
        <mxCell id="HavgDcFnVHiz-q8iYQLe-301" value="" style="group;strokeWidth=2;" vertex="1" connectable="0" parent="1">
          <mxGeometry x="-1390.8499999999997" y="990" width="160" height="159.99999999999991" as="geometry" />
        </mxCell>
        <mxCell id="HavgDcFnVHiz-q8iYQLe-302" value="" style="group;strokeWidth=2;" vertex="1" connectable="0" parent="HavgDcFnVHiz-q8iYQLe-301">
          <mxGeometry width="160" height="113.59999999999991" as="geometry" />
        </mxCell>
        <mxCell id="HavgDcFnVHiz-q8iYQLe-303" value="" style="pointerEvents=1;shadow=0;dashed=0;html=1;strokeColor=none;fillColor=#434445;aspect=fixed;labelPosition=center;verticalLabelPosition=bottom;verticalAlign=top;align=center;outlineConnect=0;shape=mxgraph.vvd.web_browser;fontSize=20;strokeWidth=2;" vertex="1" parent="HavgDcFnVHiz-q8iYQLe-302">
          <mxGeometry width="160" height="113.6" as="geometry" />
        </mxCell>
        <mxCell id="HavgDcFnVHiz-q8iYQLe-304" value="" style="shape=image;html=1;verticalAlign=top;verticalLabelPosition=bottom;labelBackgroundColor=#ffffff;imageAspect=0;aspect=fixed;image=https://cdn1.iconfinder.com/data/icons/logotypes/32/chrome-128.png;fontSize=20;strokeWidth=2;" vertex="1" parent="HavgDcFnVHiz-q8iYQLe-302">
          <mxGeometry x="5" y="4" width="20" height="20" as="geometry" />
        </mxCell>
        <mxCell id="HavgDcFnVHiz-q8iYQLe-305" value="APP管理系統" style="text;html=1;strokeColor=none;fillColor=none;align=center;verticalAlign=middle;whiteSpace=wrap;rounded=0;fontSize=20;strokeWidth=2;" vertex="1" parent="HavgDcFnVHiz-q8iYQLe-301">
          <mxGeometry x="5" y="113.59999999999991" width="150" height="46.4" as="geometry" />
        </mxCell>
        <mxCell id="HavgDcFnVHiz-q8iYQLe-306" value="" style="endArrow=classic;startArrow=none;html=1;rounded=0;labelBackgroundColor=#FF3333;fontFamily=Helvetica;fontSize=20;fontColor=#000000;strokeColor=#3333FF;strokeWidth=3;fillColor=#CC0066;startFill=0;" edge="1" parent="1" source="HavgDcFnVHiz-q8iYQLe-303" target="HavgDcFnVHiz-q8iYQLe-283">
          <mxGeometry width="100" height="100" relative="1" as="geometry">
            <mxPoint x="-1174.9699999999998" y="768.6603228910512" as="sourcePoint" />
            <mxPoint x="-896.35" y="835.6864107772903" as="targetPoint" />
          </mxGeometry>
        </mxCell>
        <mxCell id="HavgDcFnVHiz-q8iYQLe-307" value="&lt;font style=&quot;font-size: 26px&quot;&gt;HTTPS&lt;/font&gt;" style="text;html=1;align=center;verticalAlign=middle;resizable=0;points=[];autosize=1;strokeColor=none;fillColor=none;fontSize=20;fontFamily=Helvetica;fontColor=#FF0000;" vertex="1" parent="1">
          <mxGeometry x="-910.85" y="360" width="100" height="30" as="geometry" />
        </mxCell>
        <mxCell id="HavgDcFnVHiz-q8iYQLe-308" value="&lt;font style=&quot;font-size: 26px&quot;&gt;HTTP&lt;br&gt;&lt;/font&gt;" style="text;html=1;align=center;verticalAlign=middle;resizable=0;points=[];autosize=1;strokeColor=none;fillColor=none;fontSize=20;fontFamily=Helvetica;fontColor=#FF0000;" vertex="1" parent="1">
          <mxGeometry x="-176.85" y="360" width="80" height="30" as="geometry" />
        </mxCell>
        <mxCell id="HavgDcFnVHiz-q8iYQLe-309" value="" style="group" vertex="1" connectable="0" parent="1">
          <mxGeometry x="-1420.85" y="660" width="238.10000000000002" height="150" as="geometry" />
        </mxCell>
        <mxCell id="HavgDcFnVHiz-q8iYQLe-310" value="" style="aspect=fixed;perimeter=ellipsePerimeter;html=1;align=center;shadow=0;dashed=0;spacingTop=3;image;image=img/lib/active_directory/internet_cloud.svg;fontFamily=Helvetica;fontSize=11;fontColor=default;" vertex="1" parent="HavgDcFnVHiz-q8iYQLe-309">
          <mxGeometry width="238.1" height="150" as="geometry" />
        </mxCell>
        <mxCell id="HavgDcFnVHiz-q8iYQLe-311" value="外部服務" style="text;html=1;align=center;verticalAlign=middle;resizable=0;points=[];autosize=1;strokeColor=none;fillColor=none;fontSize=43;fontFamily=Helvetica;fontColor=#000000;" vertex="1" parent="HavgDcFnVHiz-q8iYQLe-309">
          <mxGeometry x="24.050000000000068" y="45" width="190" height="60" as="geometry" />
        </mxCell>
        <mxCell id="HavgDcFnVHiz-q8iYQLe-312" value="" style="endArrow=classic;startArrow=classic;html=1;rounded=0;labelBackgroundColor=#FF3333;fontFamily=Helvetica;fontSize=20;fontColor=#000000;strokeColor=#00FFFF;strokeWidth=3;fillColor=#CC0066;" edge="1" parent="1" source="HavgDcFnVHiz-q8iYQLe-310" target="HavgDcFnVHiz-q8iYQLe-318">
          <mxGeometry width="100" height="100" relative="1" as="geometry">
            <mxPoint x="-1121.85" y="527.4965986394554" as="sourcePoint" />
            <mxPoint x="-893.85" y="529.4819047619048" as="targetPoint" />
          </mxGeometry>
        </mxCell>
        <mxCell id="HavgDcFnVHiz-q8iYQLe-313" value="" style="endArrow=classic;startArrow=classic;html=1;rounded=0;labelBackgroundColor=#FF3333;fontFamily=Helvetica;fontSize=20;fontColor=#000000;strokeColor=#3333FF;strokeWidth=3;fillColor=#CC0066;" edge="1" parent="1" source="HavgDcFnVHiz-q8iYQLe-310" target="HavgDcFnVHiz-q8iYQLe-328">
          <mxGeometry width="100" height="100" relative="1" as="geometry">
            <mxPoint x="-1152.8000000000002" y="921.9316430872668" as="sourcePoint" />
            <mxPoint x="-891.35" y="863.3352010085446" as="targetPoint" />
          </mxGeometry>
        </mxCell>
        <mxCell id="HavgDcFnVHiz-q8iYQLe-314" value="POS設備" style="points=[];aspect=fixed;html=1;align=center;shadow=0;dashed=0;image;image=img/lib/allied_telesis/security/POS.svg;fontSize=20;strokeWidth=2;" vertex="1" parent="1">
          <mxGeometry x="-1453.9999999999998" y="1171.8" width="141.25" height="150" as="geometry" />
        </mxCell>
        <mxCell id="HavgDcFnVHiz-q8iYQLe-315" value="" style="endArrow=classic;startArrow=none;html=1;rounded=0;labelBackgroundColor=#FF3333;fontFamily=Helvetica;fontSize=20;fontColor=#000000;strokeColor=#3333FF;strokeWidth=3;fillColor=#CC0066;startFill=0;" edge="1" parent="1" source="HavgDcFnVHiz-q8iYQLe-314" target="HavgDcFnVHiz-q8iYQLe-283">
          <mxGeometry width="100" height="100" relative="1" as="geometry">
            <mxPoint x="-1112.807646176911" y="1060" as="sourcePoint" />
            <mxPoint x="-891.35" y="894.4728953634958" as="targetPoint" />
          </mxGeometry>
        </mxCell>
        <mxCell id="HavgDcFnVHiz-q8iYQLe-316" style="edgeStyle=none;rounded=0;orthogonalLoop=1;jettySize=auto;html=1;labelBackgroundColor=#FF3333;fontFamily=Helvetica;fontSize=60;fontColor=#FF0000;startArrow=none;startFill=0;endArrow=classic;endFill=1;strokeColor=#330033;strokeWidth=3;fillColor=#CC0066;" edge="1" parent="1" source="HavgDcFnVHiz-q8iYQLe-318" target="HavgDcFnVHiz-q8iYQLe-326">
          <mxGeometry relative="1" as="geometry" />
        </mxCell>
        <mxCell id="HavgDcFnVHiz-q8iYQLe-317" style="edgeStyle=none;rounded=0;orthogonalLoop=1;jettySize=auto;html=1;labelBackgroundColor=#FF3333;fontFamily=Helvetica;fontSize=60;fontColor=#FF0000;startArrow=none;startFill=0;endArrow=classic;endFill=1;strokeColor=#330033;strokeWidth=3;fillColor=#CC0066;" edge="1" parent="1" source="HavgDcFnVHiz-q8iYQLe-318" target="HavgDcFnVHiz-q8iYQLe-327">
          <mxGeometry relative="1" as="geometry" />
        </mxCell>
        <mxCell id="HavgDcFnVHiz-q8iYQLe-318" value="&lt;font style=&quot;font-size: 20px&quot; color=&quot;#000000&quot;&gt;Proxy Server&lt;br&gt;&lt;/font&gt;" style="verticalLabelPosition=bottom;sketch=0;aspect=fixed;html=1;verticalAlign=top;strokeColor=none;align=center;outlineConnect=0;shape=mxgraph.citrix.proxy_server;fontFamily=Helvetica;fontSize=43;fontColor=#FF3333;fillColor=default;" vertex="1" parent="1">
          <mxGeometry x="-629.85" y="450" width="119" height="140" as="geometry" />
        </mxCell>
        <mxCell id="HavgDcFnVHiz-q8iYQLe-319" value="" style="endArrow=classic;startArrow=none;html=1;rounded=0;labelBackgroundColor=#FF3333;fontFamily=Helvetica;fontSize=20;fontColor=#000000;strokeColor=#00CC00;strokeWidth=3;fillColor=#CC0066;startFill=0;endFill=1;" edge="1" parent="1" source="HavgDcFnVHiz-q8iYQLe-281" target="HavgDcFnVHiz-q8iYQLe-318">
          <mxGeometry width="100" height="100" relative="1" as="geometry">
            <mxPoint x="-784.85" y="520" as="sourcePoint" />
            <mxPoint x="-386.85" y="520" as="targetPoint" />
          </mxGeometry>
        </mxCell>
        <mxCell id="HavgDcFnVHiz-q8iYQLe-320" value="" style="endArrow=classic;startArrow=none;html=1;rounded=0;labelBackgroundColor=#FF3333;fontFamily=Helvetica;fontSize=20;fontColor=#000000;strokeColor=#FF0000;strokeWidth=3;fillColor=#CC0066;startFill=0;" edge="1" parent="1">
          <mxGeometry width="100" height="100" relative="1" as="geometry">
            <mxPoint x="-516.85" y="553.8800000000001" as="sourcePoint" />
            <mxPoint x="-379.9500000000004" y="553.5" as="targetPoint" />
          </mxGeometry>
        </mxCell>
        <mxCell id="HavgDcFnVHiz-q8iYQLe-321" value="" style="endArrow=classic;startArrow=none;html=1;rounded=0;labelBackgroundColor=#FF3333;fontFamily=Helvetica;fontSize=20;fontColor=#000000;strokeColor=#3333FF;strokeWidth=3;fillColor=#CC0066;startFill=0;" edge="1" parent="1" source="HavgDcFnVHiz-q8iYQLe-283" target="HavgDcFnVHiz-q8iYQLe-328">
          <mxGeometry width="100" height="100" relative="1" as="geometry">
            <mxPoint x="-827.85" y="1087.4054662379422" as="sourcePoint" />
            <mxPoint x="-656.85" y="1020" as="targetPoint" />
          </mxGeometry>
        </mxCell>
        <mxCell id="HavgDcFnVHiz-q8iYQLe-322" value="" style="aspect=fixed;perimeter=ellipsePerimeter;html=1;align=center;shadow=0;dashed=0;spacingTop=3;image;image=img/lib/active_directory/firewall.svg;fontFamily=Helvetica;fontSize=43;fontColor=#FF3333;strokeColor=default;fillColor=default;" vertex="1" parent="1">
          <mxGeometry x="-1095.3999999999999" y="404.5" width="67.1" height="110" as="geometry" />
        </mxCell>
        <mxCell id="HavgDcFnVHiz-q8iYQLe-323" value="" style="endArrow=none;html=1;rounded=0;labelBackgroundColor=#FF3333;fontFamily=Helvetica;fontSize=43;fontColor=#FF3333;strokeColor=#000000;strokeWidth=6;shape=connector;startArrow=none;" edge="1" parent="1" source="HavgDcFnVHiz-q8iYQLe-337" target="HavgDcFnVHiz-q8iYQLe-322">
          <mxGeometry width="50" height="50" relative="1" as="geometry">
            <mxPoint x="-1060.85" y="1454.5" as="sourcePoint" />
            <mxPoint x="-1060.85" y="314.5" as="targetPoint" />
          </mxGeometry>
        </mxCell>
        <mxCell id="HavgDcFnVHiz-q8iYQLe-324" value="" style="aspect=fixed;perimeter=ellipsePerimeter;html=1;align=center;shadow=0;dashed=0;spacingTop=3;image;image=img/lib/active_directory/firewall.svg;fontFamily=Helvetica;fontSize=43;fontColor=#FF3333;strokeColor=default;fillColor=default;" vertex="1" parent="1">
          <mxGeometry x="-490.35" y="660" width="67.1" height="110" as="geometry" />
        </mxCell>
        <mxCell id="HavgDcFnVHiz-q8iYQLe-325" value="" style="endArrow=none;html=1;rounded=0;labelBackgroundColor=#FF3333;fontFamily=Helvetica;fontSize=43;fontColor=#FF3333;strokeColor=#000000;strokeWidth=6;shape=connector;" edge="1" parent="1" target="HavgDcFnVHiz-q8iYQLe-324">
          <mxGeometry width="50" height="50" relative="1" as="geometry">
            <mxPoint x="-456.85" y="1449.9999999999995" as="sourcePoint" />
            <mxPoint x="-456.85" y="319.99999999999955" as="targetPoint" />
          </mxGeometry>
        </mxCell>
        <mxCell id="HavgDcFnVHiz-q8iYQLe-326" value="&lt;font style=&quot;font-size: 20px&quot; color=&quot;#000000&quot;&gt;MailServer&lt;br&gt;&lt;/font&gt;" style="verticalLabelPosition=bottom;sketch=0;aspect=fixed;html=1;verticalAlign=top;strokeColor=none;align=center;outlineConnect=0;shape=mxgraph.citrix.proxy_server;fontFamily=Helvetica;fontSize=43;fontColor=#FF3333;fillColor=default;" vertex="1" parent="1">
          <mxGeometry x="-1000.85" y="720" width="119" height="140" as="geometry" />
        </mxCell>
        <mxCell id="HavgDcFnVHiz-q8iYQLe-327" value="&lt;font style=&quot;font-size: 20px&quot; color=&quot;#000000&quot;&gt;SMS&lt;br&gt;&lt;/font&gt;" style="verticalLabelPosition=bottom;sketch=0;aspect=fixed;html=1;verticalAlign=top;strokeColor=none;align=center;outlineConnect=0;shape=mxgraph.citrix.proxy_server;fontFamily=Helvetica;fontSize=43;fontColor=#FF3333;fillColor=default;" vertex="1" parent="1">
          <mxGeometry x="-850.85" y="780" width="119" height="140" as="geometry" />
        </mxCell>
        <mxCell id="HavgDcFnVHiz-q8iYQLe-328" value="&lt;font style=&quot;font-size: 20px&quot; color=&quot;#000000&quot;&gt;Proxy Server&lt;br&gt;&lt;/font&gt;" style="verticalLabelPosition=bottom;sketch=0;aspect=fixed;html=1;verticalAlign=top;strokeColor=none;align=center;outlineConnect=0;shape=mxgraph.citrix.proxy_server;fontFamily=Helvetica;fontSize=43;fontColor=#FF3333;fillColor=default;" vertex="1" parent="1">
          <mxGeometry x="-635.85" y="1031.8" width="119" height="140" as="geometry" />
        </mxCell>
        <mxCell id="HavgDcFnVHiz-q8iYQLe-329" style="edgeStyle=none;rounded=0;orthogonalLoop=1;jettySize=auto;html=1;labelBackgroundColor=#FF3333;fontFamily=Helvetica;fontSize=60;fontColor=#FF0000;startArrow=none;startFill=0;endArrow=classic;endFill=1;strokeColor=#330033;strokeWidth=3;fillColor=#CC0066;" edge="1" parent="1">
          <mxGeometry relative="1" as="geometry">
            <mxPoint x="-506.85" y="590" as="targetPoint" />
            <mxPoint x="-396.85" y="590" as="sourcePoint" />
          </mxGeometry>
        </mxCell>
        <mxCell id="HavgDcFnVHiz-q8iYQLe-330" value="Storage" style="points=[];aspect=fixed;html=1;align=center;shadow=0;dashed=0;image;image=img/lib/allied_telesis/storage/Datacenter_Server_Storage_Unit_Large.svg;fontFamily=Helvetica;fontSize=28;fontColor=#0808FF;strokeColor=default;fillColor=default;" vertex="1" parent="1">
          <mxGeometry x="163.15" y="850" width="76.8" height="79.2" as="geometry" />
        </mxCell>
        <mxCell id="HavgDcFnVHiz-q8iYQLe-331" value="" style="endArrow=classic;startArrow=classic;html=1;rounded=0;labelBackgroundColor=#FF3333;fontFamily=Helvetica;fontSize=20;fontColor=#000000;strokeColor=#00FFFF;strokeWidth=3;fillColor=#CC0066;" edge="1" parent="1">
          <mxGeometry width="100" height="100" relative="1" as="geometry">
            <mxPoint x="-496.85" y="538" as="sourcePoint" />
            <mxPoint x="-406.85" y="538" as="targetPoint" />
          </mxGeometry>
        </mxCell>
        <mxCell id="HavgDcFnVHiz-q8iYQLe-332" value="FTP Server" style="verticalLabelPosition=bottom;sketch=0;aspect=fixed;html=1;verticalAlign=top;strokeColor=none;align=center;outlineConnect=0;shape=mxgraph.citrix.ftp_server;fontFamily=Helvetica;fontSize=28;fontColor=#0808FF;fillColor=default;" vertex="1" parent="1">
          <mxGeometry x="-362.76000000000005" y="1080" width="101.82" height="139.1" as="geometry" />
        </mxCell>
        <mxCell id="HavgDcFnVHiz-q8iYQLe-333" value="" style="endArrow=none;dashed=1;html=1;rounded=0;labelBackgroundColor=#FF3333;fontFamily=Helvetica;fontSize=20;fontColor=#000000;strokeColor=#CC0066;strokeWidth=5;fillColor=#CC0066;shape=connector;" edge="1" parent="1">
          <mxGeometry width="50" height="50" relative="1" as="geometry">
            <mxPoint x="117.15" y="1072.4429268973217" as="sourcePoint" />
            <mxPoint x="117.15" y="451.3000000000002" as="targetPoint" />
          </mxGeometry>
        </mxCell>
        <mxCell id="HavgDcFnVHiz-q8iYQLe-334" value="Storage" style="points=[];aspect=fixed;html=1;align=center;shadow=0;dashed=0;image;image=img/lib/allied_telesis/storage/Datacenter_Server_Storage_Unit_Large.svg;fontFamily=Helvetica;fontSize=28;fontColor=#0808FF;strokeColor=default;fillColor=default;" vertex="1" parent="1">
          <mxGeometry x="163.15" y="518.4999999999999" width="76.8" height="79.2" as="geometry" />
        </mxCell>
        <mxCell id="HavgDcFnVHiz-q8iYQLe-335" value="IPS" style="sketch=0;points=[[0.015,0.015,0],[0.985,0.015,0],[0.985,0.985,0],[0.015,0.985,0],[0.25,0,0],[0.5,0,0],[0.75,0,0],[1,0.25,0],[1,0.5,0],[1,0.75,0],[0.75,1,0],[0.5,1,0],[0.25,1,0],[0,0.75,0],[0,0.5,0],[0,0.25,0]];verticalLabelPosition=bottom;html=1;verticalAlign=top;aspect=fixed;align=center;pointerEvents=1;shape=mxgraph.cisco19.rect;prIcon=ips_ids;fillColor=#FAFAFA;strokeColor=#005073;fontFamily=Helvetica;fontSize=26;fontColor=#0808FF;" vertex="1" parent="1">
          <mxGeometry x="-1098.6499999999999" y="894.5" width="76.8" height="60" as="geometry" />
        </mxCell>
        <mxCell id="HavgDcFnVHiz-q8iYQLe-336" value="" style="endArrow=none;html=1;rounded=0;labelBackgroundColor=#FF3333;fontFamily=Helvetica;fontSize=43;fontColor=#FF3333;strokeColor=#000000;strokeWidth=6;shape=connector;startArrow=none;" edge="1" parent="1" source="HavgDcFnVHiz-q8iYQLe-339" target="HavgDcFnVHiz-q8iYQLe-335">
          <mxGeometry width="50" height="50" relative="1" as="geometry">
            <mxPoint x="-1060.85" y="1454.5" as="sourcePoint" />
            <mxPoint x="-1061.85" y="514.5" as="targetPoint" />
          </mxGeometry>
        </mxCell>
        <mxCell id="HavgDcFnVHiz-q8iYQLe-337" value="" style="sketch=0;points=[[0,0,0],[0.25,0,0],[0.5,0,0],[0.75,0,0],[1,0,0],[0,1,0],[0.25,1,0],[0.5,1,0],[0.75,1,0],[1,1,0],[0,0.25,0],[0,0.5,0],[0,0.75,0],[1,0.25,0],[1,0.5,0],[1,0.75,0]];outlineConnect=0;fontColor=#232F3E;gradientColor=#F54749;gradientDirection=north;fillColor=#C7131F;strokeColor=#ffffff;dashed=0;verticalLabelPosition=bottom;verticalAlign=top;align=center;html=1;fontSize=12;fontStyle=0;aspect=fixed;shape=mxgraph.aws4.resourceIcon;resIcon=mxgraph.aws4.waf;fontFamily=Helvetica;" vertex="1" parent="1">
          <mxGeometry x="-1101.85" y="619" width="80" height="80" as="geometry" />
        </mxCell>
        <mxCell id="HavgDcFnVHiz-q8iYQLe-338" value="" style="endArrow=none;html=1;rounded=0;labelBackgroundColor=#FF3333;fontFamily=Helvetica;fontSize=43;fontColor=#FF3333;strokeColor=#000000;strokeWidth=6;shape=connector;startArrow=none;" edge="1" parent="1" source="HavgDcFnVHiz-q8iYQLe-335" target="HavgDcFnVHiz-q8iYQLe-337">
          <mxGeometry width="50" height="50" relative="1" as="geometry">
            <mxPoint x="-1061.85" y="774.5" as="sourcePoint" />
            <mxPoint x="-1061.85" y="514.5" as="targetPoint" />
          </mxGeometry>
        </mxCell>
        <mxCell id="HavgDcFnVHiz-q8iYQLe-339" value="" style="aspect=fixed;html=1;points=[];align=center;image;fontSize=12;image=img/lib/azure2/networking/DNS_Zones.svg;fontFamily=Helvetica;fontColor=#0808FF;strokeColor=default;fillColor=default;" vertex="1" parent="1">
          <mxGeometry x="-1111.85" y="1051.8" width="100" height="100" as="geometry" />
        </mxCell>
        <mxCell id="HavgDcFnVHiz-q8iYQLe-340" value="" style="endArrow=none;html=1;rounded=0;labelBackgroundColor=#FF3333;fontFamily=Helvetica;fontSize=43;fontColor=#FF3333;strokeColor=#000000;strokeWidth=6;shape=connector;" edge="1" parent="1" target="HavgDcFnVHiz-q8iYQLe-339">
          <mxGeometry width="50" height="50" relative="1" as="geometry">
            <mxPoint x="-1060.85" y="1454.5" as="sourcePoint" />
            <mxPoint x="-1061.8038461538458" y="834.5" as="targetPoint" />
          </mxGeometry>
        </mxCell>
        <mxCell id="HavgDcFnVHiz-q8iYQLe-341" value="" style="endArrow=none;html=1;rounded=0;labelBackgroundColor=#FF3333;fontFamily=Helvetica;fontSize=43;fontColor=#FF3333;strokeColor=#000000;strokeWidth=6;shape=connector;startArrow=none;" edge="1" parent="1" source="HavgDcFnVHiz-q8iYQLe-342">
          <mxGeometry width="50" height="50" relative="1" as="geometry">
            <mxPoint x="-690.85" y="1473.5" as="sourcePoint" />
            <mxPoint x="-690.8499999999996" y="330" as="targetPoint" />
          </mxGeometry>
        </mxCell>
        <mxCell id="HavgDcFnVHiz-q8iYQLe-342" value="" style="aspect=fixed;perimeter=ellipsePerimeter;html=1;align=center;shadow=0;dashed=0;spacingTop=3;image;image=img/lib/active_directory/firewall.svg;fontFamily=Helvetica;fontSize=43;fontColor=#FF3333;strokeColor=default;fillColor=default;" vertex="1" parent="1">
          <mxGeometry x="-720.85" y="655" width="67.1" height="110" as="geometry" />
        </mxCell>
        <mxCell id="HavgDcFnVHiz-q8iYQLe-343" value="" style="endArrow=none;html=1;rounded=0;labelBackgroundColor=#FF3333;fontFamily=Helvetica;fontSize=43;fontColor=#FF3333;strokeColor=#000000;strokeWidth=6;shape=connector;" edge="1" parent="1" target="HavgDcFnVHiz-q8iYQLe-342">
          <mxGeometry width="50" height="50" relative="1" as="geometry">
            <mxPoint x="-690.8499999999996" y="1473.5" as="sourcePoint" />
            <mxPoint x="-690.85" y="330" as="targetPoint" />
          </mxGeometry>
        </mxCell>
      </root>
    </mxGraphModel>
  </diagram>
</mxfile>
